<?xml version="1.0" encoding="utf-8"?>
<!-- Generator: Adobe Illustrator 25.0.1, SVG Export Plug-In . SVG Version: 6.00 Build 0)  -->
<svg version="1.1" id="Capa_1" xmlns="http://www.w3.org/2000/svg" xmlns:xlink="http://www.w3.org/1999/xlink" x="0px" y="0px"
	 viewBox="0 0 22 28.18" style="enable-background:new 0 0 22 28.18;" xml:space="preserve">
<style type="text/css">
	.st0{fill:#FFFFFF;}
</style>
<g>
	<g>
		<g>
			<path class="st0" d="M11,28.05L11,28.05c-0.27,0-0.53-0.11-0.71-0.31C9.87,27.29,0.15,16.76,0.15,10.99
				C0.15,5.01,5.02,0.14,11,0.14s10.85,4.87,10.85,10.85c0,5.77-9.72,16.3-10.14,16.75C11.53,27.94,11.27,28.05,11,28.05z M11,2.08
				c-4.91,0-8.91,4-8.91,8.91c0,3.83,5.89,11.25,8.91,14.65c3.02-3.4,8.91-10.81,8.91-14.65C19.91,6.08,15.91,2.08,11,2.08z"/>
		</g>
		<g>
			<path class="st0" d="M11,15.4c-2.69,0-4.88-2.19-4.88-4.88S8.31,5.64,11,5.64s4.88,2.19,4.88,4.88S13.69,15.4,11,15.4z M11,7.57
				c-1.62,0-2.94,1.32-2.94,2.94s1.32,2.94,2.94,2.94s2.94-1.32,2.94-2.94C13.94,8.89,12.62,7.57,11,7.57z"/>
		</g>
	</g>
</g>
</svg>
