<?xml version="1.0" encoding="utf-8"?>
<!-- Generator: Adobe Illustrator 25.0.1, SVG Export Plug-In . SVG Version: 6.00 Build 0)  -->
<svg version="1.1" id="Capa_1" xmlns="http://www.w3.org/2000/svg" xmlns:xlink="http://www.w3.org/1999/xlink" x="0px" y="0px"
	 viewBox="0 0 22 28.18" style="enable-background:new 0 0 22 28.18;" xml:space="preserve">
<style type="text/css">
	.st0{fill:#FFFFFF;}
</style>
<g>
	<g>
		<path class="st0" d="M16.64,7.24c-0.69,0-1.25,0.56-1.25,1.25s0.56,1.25,1.25,1.25c0.69,0,1.25-0.56,1.25-1.25
			S17.33,7.24,16.64,7.24z"/>
		<path class="st0" d="M11.09,8.84c-2.89,0-5.25,2.35-5.25,5.25c0,2.89,2.35,5.25,5.25,5.25c2.89,0,5.25-2.35,5.25-5.25
			C16.34,11.2,13.98,8.84,11.09,8.84z M11.09,17.45c-1.85,0-3.36-1.51-3.36-3.36s1.51-3.36,3.36-3.36s3.36,1.51,3.36,3.36
			S12.94,17.45,11.09,17.45z"/>
		<path class="st0" d="M15.25,24.75H6.74c-3.53,0-6.4-2.87-6.4-6.4V9.83c0-3.53,2.87-6.4,6.4-6.4h8.51c3.53,0,6.4,2.87,6.4,6.4v8.51
			C21.66,21.87,18.78,24.75,15.25,24.75z M6.74,5.44c-2.42,0-4.4,1.97-4.4,4.4v8.51c0,2.42,1.97,4.4,4.4,4.4h8.51
			c2.42,0,4.4-1.97,4.4-4.4V9.83c0-2.42-1.97-4.4-4.4-4.4H6.74V5.44z"/>
	</g>
</g>
</svg>
