<svg id="Capa_1" data-name="Capa 1" xmlns="http://www.w3.org/2000/svg" viewBox="0 0 70.11 49.74"><defs><style>.cls-1,.cls-2,.cls-3,.cls-4,.cls-5,.cls-6,.cls-7{fill:none;stroke-miterlimit:10;stroke-width:0;}.cls-1{stroke:#ccc;}.cls-2{stroke:#8d8e8e;}.cls-3{stroke:#c1c1c1;}.cls-4{stroke:#fb9a9b;}.cls-5{stroke:#85a4ce;}.cls-6{stroke:#ffefad;}.cls-7{stroke:#803f69;}.cls-8{fill:#f63536;}.cls-9{fill:#0a499c;}.cls-10{fill:#fede5b;}.cls-11{fill:#989899;}.cls-12{fill:#828383;}.cls-13{fill:#fff;}</style></defs><path class="cls-1" d="M36.52,49.39a.09.09,0,0,1,.09-.06" transform="translate(-0.18 -0.13)"/><path class="cls-2" d="M36.61,49.33a.15.15,0,0,0,0-.07s0,0-.06,0a.12.12,0,0,0,0,.13" transform="translate(-0.18 -0.13)"/><path class="cls-2" d="M9.19,49.38c.24,0,.38,0,.43-.1" transform="translate(-0.18 -0.13)"/><path class="cls-1" d="M9.62,49.28a1.09,1.09,0,0,1-.43.1" transform="translate(-0.18 -0.13)"/><path class="cls-2" d="M20.58,49.3c.07.07.17.08.32,0" transform="translate(-0.18 -0.13)"/><path class="cls-3" d="M20.9,49.32c.23,0,1-.26.68-.59a.09.09,0,0,0-.07,0l-.35.13" transform="translate(-0.18 -0.13)"/><line class="cls-2" x1="20.98" y1="48.73" x2="20.52" y2="48.72"/><path class="cls-1" d="M20.7,48.85a.47.47,0,0,0,.46,0m-.26.47-.32,0" transform="translate(-0.18 -0.13)"/><path class="cls-2" d="M31.63,49.38c.16,0,.46.06.51-.15" transform="translate(-0.18 -0.13)"/><path class="cls-1" d="M32.14,49.23a.84.84,0,0,1-.51.15" transform="translate(-0.18 -0.13)"/><path class="cls-2" d="M11.63,49.29a1.2,1.2,0,0,0-.05-.8" transform="translate(-0.18 -0.13)"/><path class="cls-1" d="M11.58,48.49a2.15,2.15,0,0,0,.05.8" transform="translate(-0.18 -0.13)"/><path class="cls-4" d="M50.8,7.42A28.68,28.68,0,0,1,55,11.66a26.46,26.46,0,0,1,4.86,8.66c.06.17.26.27.38.4.81.87,1.62,1.74,2.45,2.61.25.26.54.65.85.94a0,0,0,0,0,.07,0,.68.68,0,0,0,0-.35A29.92,29.92,0,0,0,58,11.3a29,29,0,0,0-20-11,32.54,32.54,0,0,0-5.67,0,23.68,23.68,0,0,0-2.6.38,29.1,29.1,0,0,0-4.47,1.23,33.12,33.12,0,0,0-5,2.37,10.84,10.84,0,0,0-1.71,1.22l-.05,0s0,0,0,0a14.89,14.89,0,0,1,3.39-1.8,25.84,25.84,0,0,1,8.66-2.29c1.24-.1,2.09-.15,2.55-.13,1.65,0,2.69.08,3.14.13a28.09,28.09,0,0,1,7.71,2,29.33,29.33,0,0,1,6.83,4" transform="translate(-0.18 -0.13)"/><path class="cls-5" d="M15.2,9.44a26.74,26.74,0,0,0-5.06,6.1,28.22,28.22,0,0,0-3.38,8.55.24.24,0,0,0,0,.12s0,0,0,0l2.74-2.91a4,4,0,0,0,.75-1,26,26,0,0,1,5-8.44,22.25,22.25,0,0,1,3.11-3A25.89,25.89,0,0,1,33,3.11,22.05,22.05,0,0,1,35.19,3c1.15.07,2.32.12,3.47.27A9.05,9.05,0,0,0,40,3.49h0c-.47-.09-1-.24-1.4-.32-.93-.18-1.58-.29-2-.32-1.18-.11-2.41-.25-3.56-.26A26.55,26.55,0,0,0,15.2,9.44" transform="translate(-0.18 -0.13)"/><path class="cls-6" d="M37.45,15.24c.49.56.92,1,1.49,1.65A9.13,9.13,0,0,0,40.15,18a.09.09,0,0,0,.07,0l1-.26C45,17,48.93,16.25,52.79,15.43a5.63,5.63,0,0,1,1.07-.13.1.1,0,0,1,.07,0,4.22,4.22,0,0,1,.94,1c.19.25.45.46.65.72l.44.57a18.34,18.34,0,0,0,1.32,1.33.07.07,0,0,0,.12-.08A17.94,17.94,0,0,0,55.93,16a19,19,0,0,0-1.69-2.29c-.19-.24-.38-.55-.6-.81A20.42,20.42,0,0,0,51.81,11a25.79,25.79,0,0,0-3.88-3,27.49,27.49,0,0,0-5.19-2.41,24.32,24.32,0,0,0-5-1.06,27.2,27.2,0,0,0-4.86-.1,25.57,25.57,0,0,0-4.31.77c-.55.13-1.1.34-1.66.52a24.31,24.31,0,0,0-4.16,1.88,14.23,14.23,0,0,0-1.33.81,25.44,25.44,0,0,0-8.25,9.24c-.29.56-.69,1.53-1.11,2.27a0,0,0,0,0,0,0h0c.64-.58,1.24-1.32,1.77-1.87.78-.79,1.49-1.57,2.13-2.33a1,1,0,0,1,1-.42c1.13.25,2.26.48,3.4.7,2.81.54,5.16,1.09,7.75,1.58a15.6,15.6,0,0,0,2,.37.12.12,0,0,0,.08,0,2.8,2.8,0,0,0,.6-.49c1.37-1.56,2.85-3,4.23-4.55a.06.06,0,0,1,.07,0,.8.8,0,0,1,.27.22c.63.72,1.36,1.39,2,2.13" transform="translate(-0.18 -0.13)"/><path class="cls-4" d="M30.25,19.24q-.77-.21-1.2-.3c-4-.8-8-1.64-12.08-2.41" transform="translate(-0.18 -0.13)"/><path class="cls-5" d="M17,16.53c-.23-.05-.49-.1-.64.07s-.37.43-.56.63Q10.43,23,5.11,28.7c-.67.73-1.5,1.6-2.25,2.41a.67.67,0,0,1-.59.24H.7a.11.11,0,0,0-.12.12v.77s0,0,.05,0c6.28,0,11.09,0,18.86,0a.51.51,0,0,0,.46-.2c5.1-5.39,10.13-10.87,15.18-16.32a0,0,0,0,1,.06,0l.83.86L50.23,31.92c.25.27.3.37.66.37H69.73a.05.05,0,0,0,0-.06l0-.87s0,0-.05,0c-.57,0-1.15,0-1.73,0a.56.56,0,0,1-.39-.11L53.91,16.5a.31.31,0,0,0-.29-.06" transform="translate(-0.18 -0.13)"/><path class="cls-4" d="M53.62,16.44a2.71,2.71,0,0,0-.4,0c-4.22,1-8.47,1.72-12.7,2.64a2.11,2.11,0,0,0-.46.16" transform="translate(-0.18 -0.13)"/><path class="cls-5" d="M40.06,19.28l-4.78-5.16a.13.13,0,0,0-.18,0l-4.35,4.65a3.84,3.84,0,0,1-.5.47" transform="translate(-0.18 -0.13)"/><path class="cls-7" d="M40.06,19.28l5.55,5.9a0,0,0,0,0,.07,0q2.82-3.06,5.65-6.09a6.62,6.62,0,0,0,.76-.79.3.3,0,0,1,0-.06,4.21,4.21,0,0,1,.36-.37c.31-.2.35-.44.55-.68s.39-.5.59-.75M17,16.53a.45.45,0,0,0,.14.45c2.48,2.74,5,5.46,7.56,8.12a.14.14,0,0,0,.21,0c1.71-1.87,3.42-3.72,5.12-5.53a2,2,0,0,0,.25-.33" transform="translate(-0.18 -0.13)"/><path class="cls-1" d="M33.32,26.51a2.83,2.83,0,0,0-1.21,1.95,0,0,0,0,0,0,.05h2.39s0,0,0,0V26.12c0-.09-.05-.13-.14-.11a2.87,2.87,0,0,0-1.13.5m4.46,2c.25,0,.64,0,.46-.41a3.26,3.26,0,0,0-2-2,.83.83,0,0,0-.42-.08.13.13,0,0,0-.12.14l0,2.29a0,0,0,0,0,.05.05c.66,0,1.31,0,2,0m.59,1.2a0,0,0,0,0,0,0H35.8a0,0,0,0,0,0,0v2.52s0,0,0,0h2.54a0,0,0,0,0,0,0V29.72m-3.78.05a.11.11,0,0,0-.09-.09H32.07a.09.09,0,0,0-.09.09V32.2a.09.09,0,0,0,.09.09H34.5a.09.09,0,0,0,.09-.09V29.77" transform="translate(-0.18 -0.13)"/><path class="cls-5" d="M16.7,34.54a1.19,1.19,0,0,0-1.07-.07c-.81.57-.71,2.77.68,2.52a.93.93,0,0,0,.47-.31.05.05,0,0,1,.09,0l.05.25A.05.05,0,0,0,17,37h.46s.06,0,.06-.06a1.32,1.32,0,0,0,0-.3c0-1,0-2.1,0-3.15a.09.09,0,0,0-.09-.09h-.49a.13.13,0,0,0-.11.1,3.86,3.86,0,0,0,0,1c0,.09,0,.11-.1.07M4.6,33.88a.36.36,0,0,0-.68-.24.36.36,0,0,0,.23.44.34.34,0,0,0,.45-.2m4.11-.23a.21.21,0,0,0-.21-.21H8.25a.22.22,0,0,0-.22.21v.19a.22.22,0,0,0,.22.22H8.5a.21.21,0,0,0,.21-.22v-.19M2.13,36.16a0,0,0,0,1-.07,0c-.32-.78-.53-1.6-.8-2.41A.24.24,0,0,0,1,33.6H.66a.12.12,0,0,0-.11.16L1.6,36.85a.19.19,0,0,0,.22.15l.56,0s.05,0,.05,0c.27-.74.61-1.75,1-3a.42.42,0,0,0,0-.27.05.05,0,0,0-.06,0l-.44,0a.18.18,0,0,0-.15.12,10.72,10.72,0,0,0-.67,2.4m7.72.63a2.34,2.34,0,0,0,1.59.14c.17,0,.14-.36.13-.47s0,0-.05,0c-.53,0-1.33.29-1.44-.49a.06.06,0,0,1,.06-.07h1.51s0,0,0,0a2.07,2.07,0,0,0-.09-.7,1.16,1.16,0,0,0-1.88-.46,1.27,1.27,0,0,0-.33.63,1.4,1.4,0,0,0,.45,1.51m10-.07.05.21A.05.05,0,0,0,20,37h.42s.05,0,.05,0a17.42,17.42,0,0,0,0-1.77c-.07-1.07-1.15-.78-1.85-.65-.17,0-.1.29-.07.4a.12.12,0,0,0,.14.1c.34,0,1.2-.32,1,.38a.07.07,0,0,1-.06,0c-.57-.06-1.41,0-1.42.73,0,.94,1,1.07,1.59.54a.05.05,0,0,1,.09,0M6.31,36.19a4.23,4.23,0,0,1-.18-.65l-.39-1.07a.16.16,0,0,0-.16-.11L5,34.42s0,0,0,0a.21.21,0,0,1,.06.1c.27.66.53,1.32.77,2A2.2,2.2,0,0,0,6,37a.05.05,0,0,0,.06,0h.63a.08.08,0,0,0,.06,0l.8-2.18a1.73,1.73,0,0,0,.07-.32s0,0,0,0-.61-.07-.66.09l-.57,1.71s0,0,0,0m2.41-1.75a.07.07,0,0,0-.07-.06H8.1a.07.07,0,0,0-.07.06v2.48a.06.06,0,0,0,.06.06h.56a.06.06,0,0,0,.06-.06V34.44m4.2.23a.49.49,0,0,0-.6-.27,0,0,0,0,0,0,0,1.28,1.28,0,0,0,0,.36c0,.86,0,1.57,0,2.13,0,0,0,0,0,0h.6s0,0,0,0c0-.44,0-.88,0-1.32a.58.58,0,0,1,.57-.66.32.32,0,0,1,.2,0c.31.2.21,1.61.21,2A.06.06,0,0,0,14,37h.57a0,0,0,0,0,0,0,7.15,7.15,0,0,0,0-1.89A.88.88,0,0,0,13,34.68s-.05,0-.06,0m8.2.77c.24.43.88.42,1.1.83a.13.13,0,0,1-.11.2,3.42,3.42,0,0,1-1-.07s-.08,0-.08.05l-.06.37a.07.07,0,0,0,0,.06c.55.17,1.61.3,1.86-.41s-.65-1-1.18-1.3a.14.14,0,0,1,0-.24,4.17,4.17,0,0,1,1.08.06s0,0,0-.05l0-.36a.06.06,0,0,0-.05-.06,1.77,1.77,0,0,0-1.3-.07.67.67,0,0,0-.32,1m-16.5-1a0,0,0,0,0,0,0H3.94a0,0,0,0,0,0,0l0,2.52s0,0,0,0h.66l0,0,0-2.52" transform="translate(-0.18 -0.13)"/><path class="cls-4" d="M59.53,40.76c-.43-.15-2.45-.75-2.44-1.26a.94.94,0,0,1,.58-.93c.66-.31,1.26.08,1.88.46a.81.81,0,0,0,.47.07l.07,0c.23-.22.59-.75.25-1a2.92,2.92,0,0,0-3.79-.14,2.14,2.14,0,0,0-.69,1.94c.15,1.36,1.84,1.64,2.82,2a2,2,0,0,1,.68.39c.45.5-.14,1.12-.64,1.27-.75.24-1.53-.32-2.07-.78-.29-.25-.83.3-.88.58-.1.52,1.14,1.17,1.52,1.28,1.4.44,3.57-.14,3.53-2a2.15,2.15,0,0,0-1.29-1.87M18.22,44.59c1.24.34,1.25-.35,1.57-1.21a.06.06,0,0,1,.06,0c.73,0,1.47,0,2.2,0,.16,0,.31,0,.42.12a5,5,0,0,0,.66,1.07c.31.24,1.06.2,1-.36a4.18,4.18,0,0,0-.25-.77c-.78-1.91-1.43-3.87-2.27-5.75a.57.57,0,0,0-.26-.27c-.69-.18-.9.38-1.07.89q-.93,2.74-1.91,5.48a3.79,3.79,0,0,0-.18.72.11.11,0,0,0,.07.12m-18-.68c0,.86,1.21.94,1.24.45,0-.86,0-1.72,0-2.57a.09.09,0,0,1,.09-.09,9.73,9.73,0,0,0,2.29-.22c1.74-.56,1.84-3.48,0-3.94A13.08,13.08,0,0,0,.7,37.37a.79.79,0,0,0-.37.07.12.12,0,0,0-.06.06A2.46,2.46,0,0,0,.21,38c0,.66,0,1.24,0,1.73s0,.83,0,1.25c0,1,0,2,0,3m28-6.54c-.57,0-.69,1.24.09,1.29.38,0,.75,0,1.11,0a.07.07,0,0,1,.07.07c0,1.75,0,3.5,0,5.26,0,.25,0,.47.2.56s1,.17,1.05-.33c0-.21,0-.45,0-.72q0-2.37-.06-4.74a.12.12,0,0,1,.14-.13,5.16,5.16,0,0,0,1.18,0,.68.68,0,0,0,.25-1.17,1,1,0,0,0-.53-.1l-3.54,0m8.81,7a3.48,3.48,0,0,0,1.2.21,16.76,16.76,0,0,0,2.92,0,.16.16,0,0,0,.16-.15,1.25,1.25,0,0,0-.17-.94l-.06,0a.62.62,0,0,0-.19-.06c-.85,0-1.77,0-2.76,0a0,0,0,0,1,0,0l0-1.61s0-.06.06-.05a14.69,14.69,0,0,0,2.2,0c.49,0,.38-.73.29-1a.08.08,0,0,0-.08-.07l-2.41-.1s0,0,0,0l.07-1.57a.11.11,0,0,1,.11-.11c.91,0,1.83,0,2.76,0,.49,0,.68-1.28.08-1.32-1-.06-2.07.1-3.17,0-.29,0-.58,0-.87,0a.12.12,0,0,0-.11.12c-.08,2.25-.1,4.49-.07,6.74a.21.21,0,0,0,.11.16m10.28-3.9c0-.1.08-.1.13,0,.67,1.17,1.38,2.31,2.12,3.43a1.26,1.26,0,0,0,1.33.72.07.07,0,0,0,.06,0,3.52,3.52,0,0,0,.12-.91c.07-1.88.1-3.77.11-5.66a1.65,1.65,0,0,0-.06-.46.18.18,0,0,0-.15-.13c-.23,0-1-.09-1,.28,0,1.61,0,2.83,0,3.68a1.25,1.25,0,0,1,0,.24c0,.12-.07.13-.13,0-.89-1.33-1.69-2.67-2.53-4-.26-.39-.74-.32-1.14-.3a.1.1,0,0,0-.11.11c0,1.8,0,3.6,0,5.4a10.11,10.11,0,0,0,0,1.23.55.55,0,0,0,.58.56c.67,0,.66-.33.66-.86,0-1,0-1.94,0-2.91a1.48,1.48,0,0,1,0-.42M65.7,43.86c0,.79.86.73,1.39.75a16.18,16.18,0,0,0,2.87,0,.2.2,0,0,0,.17-.18,1.08,1.08,0,0,0-.23-.85c-.2-.24-.72-.21-1-.2L67,43.4c-.08,0-.11,0-.11-.11l0-1.51a.09.09,0,0,1,.09-.09l1.65,0c.86,0,.92-.31.84-1.05,0-.07,0-.11-.12-.11L67,40.44s-.06,0-.06-.06a9.4,9.4,0,0,1,0-1.5.18.18,0,0,1,.16-.15c.71,0,1.43,0,2.14,0,.28,0,.88,0,1-.32a2.74,2.74,0,0,0,0-.75.21.21,0,0,0-.18-.17,5.23,5.23,0,0,0-1.26-.06,17.66,17.66,0,0,1-2.52,0l-.49,0s-.08,0-.08.08q0,3.21,0,6.42M14,43.36c-1,0-2,0-3,0a.15.15,0,0,1-.15-.15c.08-1.8.12-3.62.11-5.46,0-.48-.88-.37-1.14-.29a.16.16,0,0,0-.1.11,3.75,3.75,0,0,0,0,.45q-.08,3.28,0,6.55a.06.06,0,0,0,.06.05c1.26,0,2.52,0,3.77,0,.85,0,.74-.6.61-1.2a.05.05,0,0,0-.05,0" transform="translate(-0.18 -0.13)"/><path class="cls-3" d="M12,49.05a0,0,0,0,1,.07,0,1,1,0,0,0,1.28.49.06.06,0,0,0,.06-.05l.11-.2a0,0,0,0,1,.05,0c.3.5,1,.36,1.37.06,0,0,0,0,.07,0a2.32,2.32,0,0,0,.8.36,1.39,1.39,0,0,0,.78-.09,1.92,1.92,0,0,0,.76-.49,0,0,0,0,1,.07,0c.31.6,1.07.54,1.68.45a.82.82,0,0,0,.55-.33.14.14,0,0,1,.2,0,3.26,3.26,0,0,0,.36.29,3,3,0,0,0,1.68,0c.39,0,1.24.4,1.32-.31a.08.08,0,0,1,.12,0,2.44,2.44,0,0,0,.71.45,1.32,1.32,0,0,0,1.56-.45s.05,0,.06,0l.15.26s0,.05.06.06a.73.73,0,0,0,1-.09l.06,0a.05.05,0,0,1,.07,0l0,.06a.86.86,0,0,0,.86.08c.14-.06.21-.2.37-.26s0,0,.06,0l.17.3a.09.09,0,0,0,.07,0h1.6l.09,0a.56.56,0,0,0,.22-.28s0,0,.06,0c.19.31.51.3.83.37a1.34,1.34,0,0,0,1.69-1.07,1,1,0,0,0-.3-.91.1.1,0,0,1,0-.07,1.64,1.64,0,0,0,.11-1c-.22-.53-1-.63-1.5-.56s-.64.48-1.1.1a2.84,2.84,0,0,1-.39-.38.15.15,0,0,0-.25,0l-.09.24s0,0-.05,0a4.26,4.26,0,0,0-1,.06c-.58.11-.93-.24-1.45.14a.11.11,0,0,1-.08,0c-.17,0-.26-.16-.38-.2-.6-.21-.62.39-1.15.29a.09.09,0,0,1-.06,0c-.11-.14-.16-.22-.34-.26a2,2,0,0,0-1.71.39s0,0-.07,0-.34-.42-.58-.42a2.33,2.33,0,0,0-.75.32.17.17,0,0,1-.19,0l-.13-.18a.07.07,0,0,0-.06,0,1.13,1.13,0,0,1-.62-.32.08.08,0,0,0-.08,0c-.33.05-.8.59-1,.84a.06.06,0,0,1-.07,0,5.32,5.32,0,0,0-1.14-.77c-.33-.19-.93.48-1.12.71,0,0,0,0,0,0a.93.93,0,0,0-1.37-.26.08.08,0,0,1-.08,0c-.14-.09-.22-.2-.38-.24a.64.64,0,0,0-.73.32l-.06,0c-.36,0-.38-.13-.59-.35a.08.08,0,0,0-.07,0,6.76,6.76,0,0,0-1.35.08,2.29,2.29,0,0,1-.95,0,4,4,0,0,0-1.68.21.17.17,0,0,1-.19-.08c-.06-.11-.19-.11-.31-.13a2,2,0,0,0-1.33.22.41.41,0,0,1-.37,0,.1.1,0,0,1-.06-.05c-.23-.38-.64-.14-1,0H6.85l-.21,0c-.19-.06-.27-.22-.51-.23s-.52.26-.71.38c0,0,0,0-.07,0a1.61,1.61,0,0,0-2-.05l-.07,0c-.49,0-1.13-.71-1.5-.51a2.63,2.63,0,0,0-1.11.91,2.5,2.5,0,0,0-.19,1.1.91.91,0,0,1-.23.52c-.18.26.18.33.34.36s0,0,.06,0a1.14,1.14,0,0,0,.79.75,2.28,2.28,0,0,0,1.36-.09c.12-.07.27-.25.42-.24s.24.22.42.28a1.51,1.51,0,0,0,1.76-.34s0,0,0,0a.92.92,0,0,0,1.26.27.09.09,0,0,1,.07,0c.35.13,1.08.31,1.3-.12,0,0,0,0,.07,0a2,2,0,0,0,2,.19c.16-.08.31-.27.51-.36a.07.07,0,0,1,.08,0,.85.85,0,0,0,.83.43.48.48,0,0,0,.51-.56" transform="translate(-0.18 -0.13)"/><path class="cls-3" d="M36.61,49.33c.4.42.82.27,1.28,0a.06.06,0,0,1,.07,0c.32.34,1.14.26,1.69.2l.07,0a2.56,2.56,0,0,0,.54-.55s0,0,.06,0a1.46,1.46,0,0,0,2.38.25.08.08,0,0,1,.12,0l.29.31.07,0c.56,0,1.24.26,1.71-.16a4.68,4.68,0,0,0,.38-.39s0,0,0,0c.11.27.17.46.48.54a.7.7,0,0,0,.94-.44,0,0,0,0,1,.06,0c.42.4.7.63,1.3.42a.13.13,0,0,0,.09-.11l0-.14s0,0,0,0c.07.32.75.32,1,.31.41,0,.78,0,1.19,0a8.86,8.86,0,0,0,1.15,0l.06,0a.74.74,0,0,1,.45-.26.06.06,0,0,1,.07,0l.12.24a.1.1,0,0,0,.05,0,2.23,2.23,0,0,0,.93,0h.08a.75.75,0,0,0,.36,0c1,0,2,.05,3,.05.08,0,.14,0,.19.15l.06,0a.48.48,0,0,0,.58-.13.11.11,0,0,1,.08,0c.13,0,.21.12.29.15.38.17.46-.18.79-.2s.45,0,.68-.06a1.83,1.83,0,0,0,.59-.3.12.12,0,0,1,.17.07c.13.44.71.27,1,.24.64-.06,1.58.31,2.08-.23a.15.15,0,0,1,.23,0c.19.35,1,.28,1.17,0a.14.14,0,0,1,.22,0c.28.2,1,.52,1.3.17,0,0,0,0,.06,0a.63.63,0,0,0,.4.17c.74.09,1.38.22,1.8-.55.17-.3.35-.65.53-1a.07.07,0,0,0,0-.1.87.87,0,0,0-.45-.05.11.11,0,0,1-.13-.12l.14-1a.11.11,0,0,0,0-.08,1.42,1.42,0,0,0-2.54.46s0,0,0,0a2,2,0,0,0-.71-.85c-.79-.52-1.33.78-1.67.39a1.32,1.32,0,0,0-.83-.56c-.44-.05-1.26,0-1.46.39-.08.15-.18.38-.31.69,0,0,0,0,0,0-.19-.51-.26-.83-.78-1.08H60a1.28,1.28,0,0,0-.9.61s0,0-.06,0a2.61,2.61,0,0,0-.53-.52.1.1,0,0,1,0-.05.45.45,0,0,0-.58-.31s0,0-.06,0l-.11.22a.08.08,0,0,1-.15,0,.37.37,0,0,0-.49-.26.1.1,0,0,0-.07,0l-.38.49a.12.12,0,0,1-.2,0c-.31-.46-1-.14-1.17.23a4.63,4.63,0,0,0-.1,1.59s0,0,0,0a.74.74,0,0,1-.55-.71,2.44,2.44,0,0,0-.2-1.21.12.12,0,0,0-.05,0c-.35-.16-.81-.18-1,.23a.05.05,0,0,1-.07,0,.56.56,0,0,0-.56.07.05.05,0,0,1-.09,0l-.28-.37a.05.05,0,0,0,0,0,1.4,1.4,0,0,0-.73.1c-.21.09-.54.7-.77.28a.65.65,0,0,0-1-.33.08.08,0,0,0,0,0,.75.75,0,0,1-.25.22h0a.88.88,0,0,1-.49-.31.06.06,0,0,0-.06,0,3.64,3.64,0,0,0-1.75.15.06.06,0,0,1-.07,0,2.83,2.83,0,0,0-2.08.06.23.23,0,0,1-.2,0,2.09,2.09,0,0,0-1.31-.19c-.27,0-.49.4-.86.22-.13-.07-.11-.2-.29-.23a.86.86,0,0,0-.82.25s-.05,0-.06,0a.66.66,0,0,0-.84-.19.12.12,0,0,0-.06.06l-.12.21a.11.11,0,0,1-.14.06c-.29-.09-.51-.28-.76-.34a2.31,2.31,0,0,0-1.63.2h-.07c-.43-.13-.75-.45-1.16,0a.06.06,0,0,1-.07,0c-.46,0-.73-.44-1.19,0a.13.13,0,0,1-.09,0,.44.44,0,0,1-.42-.21.07.07,0,0,0-.08,0,1.91,1.91,0,0,0-.79.3.13.13,0,0,0-.06.11c0,.62,0,1.25,0,1.87s0,1.27.75,1.23a.77.77,0,0,0,.65-.32s0,0,0,0c.16.42.92.39,1.15.09" transform="translate(-0.18 -0.13)"/><path class="cls-5" d="M23.92,26.11,16.41,18a.11.11,0,0,0-.16,0L4.07,31.11c-.09.1-.07.18,0,.25s.08,0,.15,0l.14,0H18.9a.36.36,0,0,0,.27-.12l4.75-5.08v0m22.51,0,4.73,5.09.08,0a4.14,4.14,0,0,0,.87.09H65.43a9.07,9.07,0,0,0,.91-.06,0,0,0,0,0,0-.08L54.1,18A.08.08,0,0,0,54,18l-.42.44-6.8,7.29-.33.31a0,0,0,0,0,0,0" transform="translate(-0.18 -0.13)"/><path class="cls-1" d="M17.62,25.56a5.08,5.08,0,0,0-.66-.49L16.84,25c-.11,0-.17,0-.17.15v1.18s0,.06.05.06h1.18a.12.12,0,0,0,.1-.16l-.27-.54a.26.26,0,0,0-.1-.13m-2.9.84,1.25,0A.05.05,0,0,0,16,26.3a9.65,9.65,0,0,0,0-1c0-.16-.06-.25-.24-.2a1.52,1.52,0,0,0-1.12,1.11.31.31,0,0,0,0,.19h0m1.31.68A.07.07,0,0,0,16,27H14.67a.07.07,0,0,0-.06.07v1.27a.07.07,0,0,0,.07.07H16a.08.08,0,0,0,.07-.07V27.08m2,0a0,0,0,0,0,0,0H16.65s0,0,0,0l0,1.37a0,0,0,0,0,0,0l1.38,0a0,0,0,0,0,0,0l0-1.37m34.46-.63,1.12,0s0,0,0-.05l0-1.11a.07.07,0,0,0-.07-.08,1.3,1.3,0,0,0-1.22,1.2.09.09,0,0,0,.09.09m1.85,0a4.5,4.5,0,0,0,1.27,0,.09.09,0,0,0,.08-.13c-.22-.48-.75-1.27-1.34-1.07a.07.07,0,0,0,0,.05v1s0,0,0,0a.13.13,0,0,0,0,.08.06.06,0,0,0,.06.06m-.64.7a0,0,0,0,0,0,0l-1.36,0a0,0,0,0,0,0,0l0,1.36s0,0,0,0l1.35,0a0,0,0,0,0,0,0l0-1.36m2,0a0,0,0,0,0,0,0l-1.34,0s0,0,0,0l0,1.34a0,0,0,0,0,0,0h1.33s0,0,0,0l0-1.34" transform="translate(-0.18 -0.13)"/><path class="cls-5" d="M15.83,35.92a.49.49,0,0,0,.84.37c.26-.29.28-1.11-.18-1.28-.63-.22-.67.54-.66.91m-5.6-.55.62,0a.1.1,0,0,0,.1-.1v-.06a.35.35,0,0,0-.35-.35h-.1a.34.34,0,0,0-.37.32v.06a.1.1,0,0,0,.1.1m8.67.76.1.29a.15.15,0,0,0,.18.08l.1,0c.3-.12.5-.33.44-.48h0c-.06-.15-.34-.18-.64-.06L19,36a.12.12,0,0,0-.07.17" transform="translate(-0.18 -0.13)"/><path class="cls-4" d="M20.39,42l1.49.05c.07,0,.1,0,.08-.1a7.12,7.12,0,0,0-.91-2.12,0,0,0,0,0-.07,0l-.71,2a.13.13,0,0,0,.12.18m-19-3.27,0,1.51a.2.2,0,0,0,.2.19l1,0C3.36,40.41,4,40,4,39.57v-.25c0-.45-.65-.8-1.4-.78l-1,0a.18.18,0,0,0-.18.2" transform="translate(-0.18 -0.13)"/><path class="cls-3" d="M18.58,46.87c-1.39,0-1.47,2.85.27,2.45.21,0,.72-.44.34-.62a.06.06,0,0,0-.06,0c-1,.57-1.3-.25-1.09-1,.11-.41.36-.39.66-.21.13.07.56.17.58-.09s-.48-.49-.7-.5M1.87,49.35c.27,0,.88-.13.94-.48a.15.15,0,0,0-.2-.17c-.31.1-.53.34-.86.08a1,1,0,0,1-.15-1.27c.24-.46.72.1,1,0a.18.18,0,0,0,.12-.23A.53.53,0,0,0,2.47,47c-1.78-.78-1.89,2.11-.6,2.33m2.28,0a.94.94,0,0,0,.9-.58,1.91,1.91,0,0,0,.08-1.13c-.11-.47-.23-.77-.79-.79A.9.9,0,0,0,3.39,48v.2c0,.44.22,1.21.76,1.23" transform="translate(-0.18 -0.13)"/><path class="cls-3" d="M9.62,49.28a.65.65,0,0,0,.25-1A2,2,0,0,0,9,47.85c-.37-.11-.24-.56.1-.57a.93.93,0,0,1,.63.2s0,0,.05,0a.27.27,0,0,0-.08-.41.89.89,0,0,0-1-.06.73.73,0,0,0-.21,1c.23.3.85.21,1,.55.07.15.06.27,0,.34s-.72,0-.91-.16a.15.15,0,0,0-.22.09c-.08.32.6.52.81.55" transform="translate(-0.18 -0.13)"/><path class="cls-3" d="M12.82,49.33h.27a.06.06,0,0,0,.07-.07v-.76a.07.07,0,0,1,0-.07.43.43,0,0,1,.41,0,.08.08,0,0,1,.05.05l.32.76a.05.05,0,0,0,0,0,.41.41,0,0,0,.4,0,.17.17,0,0,0,0-.25c-.13-.12-.41-.55-.3-.75.66-1.17-.11-1.51-1.14-1.33a.58.58,0,0,0-.2.11.09.09,0,0,0,0,.07l0,2.11a.11.11,0,0,0,.1.11" transform="translate(-0.18 -0.13)"/><path class="cls-3" d="M20.7,48.85c-.51-.35-.38-.78-.26-1.29a.27.27,0,0,1,.33-.19,1.48,1.48,0,0,0,.83.12.1.1,0,0,0,0-.06.28.28,0,0,0-.13-.32c-1.43-1-2.25,1.32-1.1,2.14l.16,0" transform="translate(-0.18 -0.13)"/><path class="cls-3" d="M23.58,48.49a.86.86,0,0,0,1.7.18c.11-.47.15-1.68-.56-1.77-1.1-.13-1.25.75-1.14,1.59" transform="translate(-0.18 -0.13)"/><path class="cls-3" d="M32.14,49.23a.5.5,0,0,0,.24-.34c.31-1.15-1.37-.82-1.15-1.38.15-.38.65-.16.92-.06a0,0,0,0,0,.06,0,.37.37,0,0,0,0-.34.08.08,0,0,0,0,0c-.48-.23-1.28-.26-1.34.47s.72.73,1.16,1a0,0,0,0,1,0,.06l0,.3a.05.05,0,0,1,0,.06c-.39.21-.55-.12-.89-.19-.12,0-.19,0-.19.13,0,.37.5.53.79.52" transform="translate(-0.18 -0.13)"/><path class="cls-3" d="M11.58,48.49,11.5,47.4s0,0,0,0l.5-.06s.05,0,.06,0l0-.08a.18.18,0,0,0-.17-.24H10.74a.17.17,0,0,0-.17.2l0,.16s0,0,0,0a.67.67,0,0,1,.42,0s0,0,0,.06a4.15,4.15,0,0,1,0,1.61.1.1,0,0,0,0,.07.16.16,0,0,1,0,.15s0,0,0,0a.73.73,0,0,0,.48,0" transform="translate(-0.18 -0.13)"/><path class="cls-3" d="M16.24,49.36c.23,0,.54-.24.55-.5,0-.51.05-1,.05-1.52,0-.29-.06-.47-.4-.38,0,0,0,0-.05,0-.15.38.31,1.84-.31,1.91s-.43-.6-.43-.93a3.85,3.85,0,0,0-.08-1,.05.05,0,0,0-.06,0l-.26,0a0,0,0,0,0-.05.05,14.58,14.58,0,0,0,0,1.58c.06.64.42.9,1.06.79M29,48.89c-.22-.82.35-.47.77-.63a.07.07,0,0,0,0-.06l0-.18a.08.08,0,0,0-.08-.07l-.59,0a.12.12,0,0,1-.12-.11v-.45a.05.05,0,0,1,.06-.06c.2,0,1.23.09,1.05-.34a.07.07,0,0,0-.05,0,5.63,5.63,0,0,0-1.36,0,.07.07,0,0,0-.07.06,6.31,6.31,0,0,0,0,.88c0,.45,0,.84,0,1.3a.22.22,0,0,0,.24.19,7,7,0,0,1,.93,0c.41,0,.38-.43,0-.41l-.75,0a.06.06,0,0,1-.06,0M6.33,48.24c0-.2,0-.22.15-.05l.66,1c.09.15.42.26.43,0s0-.48,0-.71a13.84,13.84,0,0,0,0-1.44s0-.05-.06-.05l-.24,0a.12.12,0,0,0-.11.15,2.52,2.52,0,0,1,0,1.06s0,0-.07,0c-.22-.33-.43-.69-.63-1A.35.35,0,0,0,6,47a0,0,0,0,0,0,0c-.09.73,0,1.21-.06,2,0,.39.56.46.5,0q0-.45-.06-.72M26.55,48c.14.23.38.62.69,1.17.1.18.26.22.48.13a.08.08,0,0,0,.05-.05,1.19,1.19,0,0,0,0-.28,12.68,12.68,0,0,1,0-1.9.05.05,0,0,0-.06-.06l-.33,0a.05.05,0,0,0-.06.06v1.19s0,.07-.07,0-.16-.25-.23-.34a6.12,6.12,0,0,1-.43-.69.63.63,0,0,0-.49-.33.05.05,0,0,0-.06,0,.86.86,0,0,0,0,.28c0,.6,0,1.2,0,1.8,0,.39.41.45.43.11s0-.79,0-1.18c0-.06,0-.06.05,0m-3.84-1h-.29a.08.08,0,0,0-.08.08l0,2c0,.14.07.25.16.25h.12c.09,0,.16-.12.16-.25l0-2a.08.08,0,0,0-.07-.08M2.14,47.9a.06.06,0,0,0-.06,0s0,0-.05.06v.27a.06.06,0,0,0,.11.05A.74.74,0,0,1,3,48.13s.08,0,.09,0,0,0,0,0a3.1,3.1,0,0,0-.85-.15.06.06,0,0,1,0,0" transform="translate(-0.18 -0.13)"/><path class="cls-2" d="M21.31,48a.13.13,0,0,0-.23,0s.05.08.11.09a.1.1,0,0,0,.12-.06" transform="translate(-0.18 -0.13)"/><path class="cls-3" d="M19.06,48S19,48,18.93,48s-.13,0-.13.09.07.08.14.07.12,0,.12-.09m17.12.07c.12.24.7,1.3,1,1.22a.15.15,0,0,0,.12-.16l0-2.12s0-.05,0-.05L37,47s0,0,0,.06a2.85,2.85,0,0,1-.08,1.12c0,.07,0,.07-.09,0a7.25,7.25,0,0,1-.61-1.1.47.47,0,0,0-.28-.21.06.06,0,0,0-.06,0,.23.23,0,0,0-.14.2c0,.72,0,1.43,0,2.14a.08.08,0,0,0,0,.07.3.3,0,0,0,.28.07.13.13,0,0,0,.11-.14l-.05-1.09a.07.07,0,0,1,.13,0m30.62-.4a.31.31,0,0,1,.41-.39l.5.22s.06,0,.06,0l0-.34a.09.09,0,0,0,0-.08c-.54-.31-1.18-.32-1.38.38-.31,1,1.4.76,1.11,1.38-.16.33-.72,0-.94-.11a.12.12,0,0,0-.18.08c-.19.55,1.37.91,1.58,0,.15-.68-.65-.82-1.12-1a.1.1,0,0,1,0-.05m-28.61-.45V49a.35.35,0,0,0,.35.35h.32a1.06,1.06,0,0,0,1-1.08v-.31a1.05,1.05,0,0,0-1.06-1.06h-.31a.34.34,0,0,0-.35.36m17.86-.16a.18.18,0,0,0-.17-.17h-.07a.17.17,0,0,0-.17.17v2.05a.17.17,0,0,0,.17.17h.06a.18.18,0,0,0,.18-.17V47.08m2.86,2.2c.52.14.36-.35.61-.37a1.51,1.51,0,0,1,.76,0,.08.08,0,0,1,0,.05c.08.14.22.51.46.27a.08.08,0,0,0,0-.07c-.19-.71-.5-1.42-.75-2.12-.11-.29-.41-.2-.47,0a20.4,20.4,0,0,1-.72,2.08s0,.07,0,.08m2.57-2,0,1.6a.42.42,0,0,0,.43.41h.27a1.07,1.07,0,0,0,1-1.11V48a1.08,1.08,0,0,0-1-1.09H61.9a.42.42,0,0,0-.42.42M40.64,48.6a.78.78,0,0,0,1.18.69c.6-.25.46-.93.48-1.44,0-.19.14-1-.29-.93a.38.38,0,0,0-.22.13.06.06,0,0,0,0,.07,1.3,1.3,0,0,1,.09.4c0,.34.15,1.38-.33,1.42s-.48-.5-.46-.81a3.09,3.09,0,0,1,0-.68c.07-.28.07-.46-.23-.53,0,0-.05,0-.06,0-.25.3-.16,1.14-.14,1.66m2.84-.92a.52.52,0,0,1,.08-.35.11.11,0,0,1,.09,0,4.26,4.26,0,0,1,.69.15c.12,0,.19,0,.2-.1.07-.54-1.52-.78-1.49.33,0,.24,0,.42.28.49s1.06.22.87.63-.62.1-.87,0-.28-.06-.31.1a.08.08,0,0,0,0,.07.88.88,0,0,0,1.65-.42c0-.41-.79-.65-1.07-.7a.16.16,0,0,1-.13-.13m2.28-.27a12.37,12.37,0,0,1,0,1.61c0,.27.12.37.37.28a.12.12,0,0,0,.08-.12l-.06-1.76a.09.09,0,0,1,.08-.1l.49-.06s0,0,.05,0l0-.08a.17.17,0,0,0-.15-.2,9.62,9.62,0,0,0-1.42,0,.07.07,0,0,0-.06,0c-.11.34.32.34.51.38a0,0,0,0,1,0,0m1.79,1.91c.41.09.24-.61.25-.85,0,0,0,0,0,0h.44a.07.07,0,0,1,.06,0c.15.39.32,1,.75.82,0,0,0,0,0-.07l-.37-.75a.17.17,0,0,1,0-.18c.93-1.15-.32-1.53-1.22-1.3a.12.12,0,0,0,0,.05,6.49,6.49,0,0,0,0,2.2.13.13,0,0,0,.1.1m9.37,0a3.93,3.93,0,0,0,1.37,0,0,0,0,0,0,0-.06l0-.21a.09.09,0,0,0-.07-.06c-.26,0-.49.08-.72,0a.11.11,0,0,1-.08-.17l1-1.7a.12.12,0,0,0-.1-.18l-1.31,0a.09.09,0,0,0-.07.06l0,.26c0,.05,0,.07,0,.06a2.76,2.76,0,0,1,.86,0s0,0,0,.05c-.29.49-.59,1-.87,1.48a.9.9,0,0,0-.12.27.16.16,0,0,0,.14.2m-6.67-2.2a.16.16,0,0,0-.16-.16H50a.17.17,0,0,0-.17.16v2.07a.18.18,0,0,0,.17.17h.07a.17.17,0,0,0,.16-.17V47.1m3.82,1.83a.07.07,0,0,1-.07-.06V47a.11.11,0,0,0-.11-.11.25.25,0,0,0-.28.25c0,.7,0,1.41,0,2.12a0,0,0,0,0,0,0l1.35,0a.06.06,0,0,0,.06,0l.06-.25s0,0,0,0l-1,0M34.91,47.08A.12.12,0,0,0,34.8,47h-.17a.12.12,0,0,0-.12.12v2.11a.13.13,0,0,0,.12.12h.16a.12.12,0,0,0,.12-.12V47.08m16.16,2.25a.33.33,0,0,0,.22,0l.05-.06a.75.75,0,0,1,1-.28.06.06,0,0,1,0,0l.1.29a.06.06,0,0,0,.08,0l.25,0s0,0,0,0A3.51,3.51,0,0,0,52.44,48a5.89,5.89,0,0,1-.29-.9.07.07,0,0,0,0,0q-.37-.23-.48.12a20.29,20.29,0,0,1-.68,2,.15.15,0,0,0,.12.2m13.68-.47c.28,0,.56.28.79.44s.18.05.19-.09a.8.8,0,0,0,0-.16c-.22-.61-.44-1.2-.68-1.8-.06-.14-.15-.34-.33-.3s-.25.44-.32.61a14.62,14.62,0,0,0-.57,1.61s0,.08,0,.09a.42.42,0,0,0,.38,0,.12.12,0,0,0,0-.07l.08-.27s0,0,.06,0a.94.94,0,0,0,.29,0h.07m-60.42.06c.29,0,.5-.41.47-.86s-.29-.81-.58-.8-.49.41-.47.87.29.81.58.79m8.81-1.38.06.35a.15.15,0,0,0,.18.13l.29-.05a.38.38,0,0,0,.34-.4h0a.38.38,0,0,0-.46-.26l-.28.05a.16.16,0,0,0-.13.19m11.33,1.37c.29,0,.52-.38.5-.83s-.26-.81-.54-.8-.51.38-.5.83.26.81.54.8M38.63,47.5v1.2a.2.2,0,0,0,.21.2h.08a.64.64,0,0,0,.59-.67V48a.64.64,0,0,0-.6-.67h-.08a.2.2,0,0,0-.2.2m21.51.82L60.08,48a.13.13,0,0,0-.15-.11h0a.36.36,0,0,0-.34.35v0c0,.16.22.25.43.22h0a.14.14,0,0,0,.11-.16m1.75-.82v1.16a.23.23,0,0,0,.23.23h.1c.34,0,.61-.35.61-.79v0a.71.71,0,0,0-.59-.8h-.11a.23.23,0,0,0-.23.22m-14,0v.36A.16.16,0,0,0,48,48h.18c.24,0,.44-.15.44-.33v0c0-.18-.2-.33-.45-.32H48a.16.16,0,0,0-.16.16" transform="translate(-0.18 -0.13)"/><path class="cls-1" d="M51.91,48.51a.29.29,0,1,0-.24-.31.28.28,0,0,0,.24.31" transform="translate(-0.18 -0.13)"/><path class="cls-3" d="M65,48.38l-.14-.49a.09.09,0,0,0-.12-.06h0a.33.33,0,0,0-.23.41v0a.33.33,0,0,0,.41.23h0a.09.09,0,0,0,.06-.12" transform="translate(-0.18 -0.13)"/><path class="cls-8" d="M50.8,7.42a29.33,29.33,0,0,0-6.83-4,28.09,28.09,0,0,0-7.71-1.95c-.45-.05-1.49-.1-3.14-.13-.46,0-1.31,0-2.55.13a25.84,25.84,0,0,0-8.66,2.29,14.89,14.89,0,0,0-3.39,1.8s0,0,0,0l.05,0a10.84,10.84,0,0,1,1.71-1.22,33.12,33.12,0,0,1,5-2.37A29.1,29.1,0,0,1,29.73.63a23.68,23.68,0,0,1,2.6-.38A32.54,32.54,0,0,1,38,.25,29,29,0,0,1,58,11.3a29.92,29.92,0,0,1,5.67,12.6.68.68,0,0,1,0,.35,0,0,0,0,1-.07,0c-.31-.29-.6-.68-.85-.94-.83-.87-1.64-1.74-2.45-2.61-.12-.13-.32-.23-.38-.4A26.46,26.46,0,0,0,55,11.66,28.68,28.68,0,0,0,50.8,7.42Z" transform="translate(-0.18 -0.13)"/><path class="cls-9" d="M10.14,15.54a26.86,26.86,0,0,1,23-12.95c1.15,0,2.38.15,3.56.26.38,0,1,.14,2,.32.42.08.93.23,1.4.32h0a9.05,9.05,0,0,1-1.36-.18c-1.15-.15-2.32-.2-3.47-.27A22.05,22.05,0,0,0,33,3.11,25.89,25.89,0,0,0,18.45,8.82a22.25,22.25,0,0,0-3.11,3,26,26,0,0,0-5,8.44,4,4,0,0,1-.75,1L6.81,24.23s0,0,0,0a.24.24,0,0,1,0-.12,28.22,28.22,0,0,1,3.38-8.55Z" transform="translate(-0.18 -0.13)"/><path class="cls-10" d="M38.94,16.89c-.57-.67-1-1.09-1.49-1.65-.65-.74-1.38-1.41-2-2.13a.8.8,0,0,0-.27-.22.06.06,0,0,0-.07,0c-1.38,1.54-2.86,3-4.23,4.55a2.8,2.8,0,0,1-.6.49.12.12,0,0,1-.08,0,15.6,15.6,0,0,1-2-.37c-2.59-.49-4.94-1-7.75-1.58-1.14-.22-2.27-.45-3.4-.7a1,1,0,0,0-1,.42c-.64.76-1.35,1.54-2.13,2.33-.53.55-1.13,1.29-1.77,1.87h0a0,0,0,0,1,0,0c.42-.74.82-1.71,1.11-2.27A25.44,25.44,0,0,1,21.42,8.4a14.23,14.23,0,0,1,1.33-.81,24.31,24.31,0,0,1,4.16-1.88c.56-.18,1.11-.39,1.66-.52a25.57,25.57,0,0,1,4.31-.77,27.2,27.2,0,0,1,4.86.1,24.32,24.32,0,0,1,5,1.06A27.49,27.49,0,0,1,47.93,8a25.79,25.79,0,0,1,3.88,3,20.42,20.42,0,0,1,1.83,1.89c.22.26.41.57.6.81A19,19,0,0,1,55.93,16a17.94,17.94,0,0,1,1.47,2.84.07.07,0,0,1-.12.08A18.34,18.34,0,0,1,56,17.6L55.52,17c-.2-.26-.46-.47-.65-.72a4.22,4.22,0,0,0-.94-1,.1.1,0,0,0-.07,0,5.63,5.63,0,0,0-1.07.13C48.93,16.25,45,17,41.18,17.78l-1,.26a.09.09,0,0,1-.07,0,9.13,9.13,0,0,1-1.21-1.14Z" transform="translate(-0.18 -0.13)"/><path class="cls-9" d="M40.06,19.28l5.55,5.9a0,0,0,0,0,.07,0q2.82-3.06,5.65-6.09a6.62,6.62,0,0,0,.76-.79.3.3,0,0,1,0-.06,4.21,4.21,0,0,1,.36-.37c.31-.2.35-.44.55-.68s.39-.5.59-.75a.31.31,0,0,1,.29.06L67.59,31.22a.56.56,0,0,0,.39.11c.58,0,1.16,0,1.73,0,0,0,.05,0,.05,0l0,.87a.05.05,0,0,1,0,.06H50.89c-.36,0-.41-.1-.66-.37L36,16.64l-.83-.86a0,0,0,0,0-.06,0C30.08,21.23,25.05,26.71,20,32.1a.51.51,0,0,1-.46.2c-7.77,0-12.58,0-18.86,0,0,0-.05,0-.05,0v-.77a.11.11,0,0,1,.12-.12H2.27a.67.67,0,0,0,.59-.24c.75-.81,1.58-1.68,2.25-2.41Q10.43,23,15.77,17.23c.19-.2.38-.41.56-.63s.41-.12.64-.07a.45.45,0,0,0,.14.45c2.48,2.74,5,5.46,7.56,8.12a.14.14,0,0,0,.21,0c1.71-1.87,3.42-3.72,5.12-5.53a2,2,0,0,0,.25-.33,3.84,3.84,0,0,0,.5-.47l4.35-4.65a.13.13,0,0,1,.18,0l4.78,5.16M23.92,26.11,16.41,18a.11.11,0,0,0-.16,0L4.07,31.11c-.09.1-.07.18,0,.25s.08,0,.15,0l.14,0H18.9a.36.36,0,0,0,.27-.12l4.75-5.08v0m22.51,0,4.73,5.09.08,0a4.14,4.14,0,0,0,.87.09H65.43a9.07,9.07,0,0,0,.91-.06,0,0,0,0,0,0-.08L54.1,18A.08.08,0,0,0,54,18l-.42.44-6.8,7.29-.33.31a0,0,0,0,0,0,0Z" transform="translate(-0.18 -0.13)"/><path class="cls-8" d="M53.62,16.44c-.2.25-.39.51-.59.75s-.24.48-.55.68a4.21,4.21,0,0,0-.36.37.3.3,0,0,0,0,.06,6.62,6.62,0,0,1-.76.79q-2.84,3-5.65,6.09a0,0,0,0,1-.07,0l-5.55-5.9a2.11,2.11,0,0,1,.46-.16c4.23-.92,8.48-1.68,12.7-2.64a2.71,2.71,0,0,1,.4,0Z" transform="translate(-0.18 -0.13)"/><path class="cls-8" d="M17,16.53c4,.77,8.05,1.61,12.08,2.41q.43.09,1.2.3a2,2,0,0,1-.25.33c-1.7,1.81-3.41,3.66-5.12,5.53a.14.14,0,0,1-.21,0c-2.56-2.66-5.08-5.38-7.56-8.12a.45.45,0,0,1-.14-.45Z" transform="translate(-0.18 -0.13)"/><path class="cls-11" d="M17.62,25.56a.26.26,0,0,1,.1.13l.27.54a.12.12,0,0,1-.1.16H16.71s-.05,0-.05-.06V25.16c0-.11.06-.16.17-.15l.12.06a5.08,5.08,0,0,1,.66.49Z" transform="translate(-0.18 -0.13)"/><path class="cls-11" d="M14.72,26.4h0a.31.31,0,0,1,0-.19,1.52,1.52,0,0,1,1.12-1.11c.18-.05.23,0,.24.2a9.65,9.65,0,0,1,0,1,.05.05,0,0,1-.06.06l-1.25,0Z" transform="translate(-0.18 -0.13)"/><path class="cls-11" d="M52.51,26.4a.09.09,0,0,1-.09-.09,1.3,1.3,0,0,1,1.22-1.2.07.07,0,0,1,.07.08l0,1.11s0,.05,0,.05l-1.12,0Z" transform="translate(-0.18 -0.13)"/><path class="cls-11" d="M54.3,26.29a.13.13,0,0,1,0-.08s0,0,0,0v-1a.07.07,0,0,1,0-.05c.59-.2,1.12.59,1.34,1.07a.09.09,0,0,1-.08.13,4.5,4.5,0,0,1-1.27,0,.06.06,0,0,1-.06-.06Z" transform="translate(-0.18 -0.13)"/><path class="cls-11" d="M33.32,26.51a2.87,2.87,0,0,1,1.13-.5c.09,0,.14,0,.14.11v2.35s0,0,0,0H32.16a0,0,0,0,1,0-.05,2.83,2.83,0,0,1,1.21-1.95Z" transform="translate(-0.18 -0.13)"/><path class="cls-11" d="M37.78,28.52c-.66,0-1.31,0-2,0a0,0,0,0,1-.05-.05l0-2.29a.13.13,0,0,1,.12-.14.83.83,0,0,1,.42.08,3.26,3.26,0,0,1,2,2c.18.38-.21.42-.46.41Z" transform="translate(-0.18 -0.13)"/><path class="cls-11" d="M16,28.35a.08.08,0,0,1-.07.07H14.68a.07.07,0,0,1-.07-.07V27.09a.07.07,0,0,1,.06-.07H16a.07.07,0,0,1,.07.07v1.27Z" transform="translate(-0.18 -0.13)"/><path class="cls-11" d="M18.07,28.4a0,0,0,0,1,0,0l-1.38,0a0,0,0,0,1,0,0l0-1.37s0,0,0,0H18a0,0,0,0,1,0,0l0,1.37Z" transform="translate(-0.18 -0.13)"/><path class="cls-11" d="M53.7,28.41a0,0,0,0,1,0,0l-1.35,0s0,0,0,0l0-1.36a0,0,0,0,1,0,0l1.36,0a0,0,0,0,1,0,0l0,1.36Z" transform="translate(-0.18 -0.13)"/><path class="cls-11" d="M55.73,28.41s0,0,0,0H54.36a0,0,0,0,1,0,0l0-1.34s0,0,0,0l1.34,0a0,0,0,0,1,0,0l0,1.34Z" transform="translate(-0.18 -0.13)"/><path class="cls-11" d="M38.37,32.25a0,0,0,0,1,0,0H35.8s0,0,0,0V29.72a0,0,0,0,1,0,0h2.54a0,0,0,0,1,0,0v2.53Z" transform="translate(-0.18 -0.13)"/><path class="cls-11" d="M34.59,32.19a.09.09,0,0,1-.09.09H32.08A.09.09,0,0,1,32,32.2V29.78a.09.09,0,0,1,.09-.09H34.5a.11.11,0,0,1,.09.09v2.42Z" transform="translate(-0.18 -0.13)"/><path class="cls-9" d="M16.7,34.54c.08,0,.11,0,.1-.07a3.86,3.86,0,0,1,0-1,.13.13,0,0,1,.11-.1h.49a.09.09,0,0,1,.09.09c0,1,0,2.1,0,3.15a1.32,1.32,0,0,1,0,.3s0,.05-.06.06H17a.05.05,0,0,1-.06,0l-.05-.25a.05.05,0,0,0-.09,0,.93.93,0,0,1-.47.31c-1.39.25-1.49-2-.68-2.52a1.19,1.19,0,0,1,1.07.07m-.87,1.38a.49.49,0,0,0,.84.37c.26-.29.28-1.11-.18-1.28-.63-.22-.67.54-.66.91Z" transform="translate(-0.18 -0.13)"/><path class="cls-9" d="M4.6,33.88a.34.34,0,0,1-.45.2.36.36,0,0,1-.23-.44.36.36,0,0,1,.68.24Z" transform="translate(-0.18 -0.13)"/><path class="cls-9" d="M8.71,33.84a.21.21,0,0,1-.21.22H8.25A.22.22,0,0,1,8,33.84v-.19a.22.22,0,0,1,.22-.21H8.5a.21.21,0,0,1,.21.21v.19Z" transform="translate(-0.18 -0.13)"/><path class="cls-9" d="M2.13,36.16a10.72,10.72,0,0,1,.67-2.4A.18.18,0,0,1,3,33.64l.44,0a.05.05,0,0,1,.06,0,.42.42,0,0,1,0,.27c-.41,1.26-.75,2.27-1,3,0,0,0,0-.05,0l-.56,0a.19.19,0,0,1-.22-.15l-1-3.09a.12.12,0,0,1,.11-.16H1a.24.24,0,0,1,.22.16c.27.81.48,1.63.8,2.41a0,0,0,0,0,.07,0Z" transform="translate(-0.18 -0.13)"/><path class="cls-9" d="M9.85,36.79a1.4,1.4,0,0,1-.45-1.51,1.27,1.27,0,0,1,.33-.63,1.16,1.16,0,0,1,1.88.46,2.07,2.07,0,0,1,.09.7s0,0,0,0H10.14a.06.06,0,0,0-.06.07c.11.78.91.54,1.44.49,0,0,.05,0,.05,0s0,.43-.13.47a2.34,2.34,0,0,1-1.59-.14m.38-1.42.62,0a.1.1,0,0,0,.1-.1v-.06a.35.35,0,0,0-.35-.35h-.1a.34.34,0,0,0-.37.32v.06a.1.1,0,0,0,.1.1Z" transform="translate(-0.18 -0.13)"/><path class="cls-9" d="M19.84,36.72a.05.05,0,0,0-.09,0c-.56.53-1.6.4-1.59-.54,0-.73.85-.79,1.42-.73a.07.07,0,0,0,.06,0c.17-.7-.69-.41-1-.38a.12.12,0,0,1-.14-.1c0-.11-.1-.37.07-.4.7-.13,1.78-.42,1.85.65a17.42,17.42,0,0,1,0,1.77s0,0-.05,0H20a.05.05,0,0,1-.06,0l-.05-.21m-.94-.59.1.29a.15.15,0,0,0,.18.08l.1,0c.3-.12.5-.33.44-.48h0c-.06-.15-.34-.18-.64-.06L19,36a.12.12,0,0,0-.07.17Z" transform="translate(-0.18 -0.13)"/><path class="cls-9" d="M6.31,36.19s0,0,0,0l.57-1.71c0-.16.53-.12.66-.09s0,0,0,0a1.73,1.73,0,0,1-.07.32l-.8,2.18a.08.08,0,0,1-.06,0H6.05A.05.05,0,0,1,6,37a2.2,2.2,0,0,1-.17-.39c-.24-.68-.5-1.34-.77-2a.21.21,0,0,0-.06-.1s0,0,0,0l.57-.06a.16.16,0,0,1,.16.11l.39,1.07a4.23,4.23,0,0,0,.18.65Z" transform="translate(-0.18 -0.13)"/><path class="cls-9" d="M8.71,36.92a.06.06,0,0,1-.06.06H8.09A.06.06,0,0,1,8,36.92V34.44a.07.07,0,0,1,.07-.06h.55a.07.07,0,0,1,.07.06v2.48Z" transform="translate(-0.18 -0.13)"/><path class="cls-9" d="M13,34.68a.88.88,0,0,1,1.55.38,7.15,7.15,0,0,1,0,1.89,0,0,0,0,1,0,0H14a.06.06,0,0,1,0-.06c0-.36.1-1.77-.21-2a.32.32,0,0,0-.2,0,.58.58,0,0,0-.57.66c0,.44,0,.88,0,1.32,0,0,0,0,0,0h-.6s0,0,0,0c0-.56,0-1.27,0-2.13a1.28,1.28,0,0,1,0-.36,0,0,0,0,1,0,0,.49.49,0,0,1,.6.27s0,0,.06,0Z" transform="translate(-0.18 -0.13)"/><path class="cls-9" d="M21.12,35.44a.67.67,0,0,1,.32-1,1.77,1.77,0,0,1,1.3.07.06.06,0,0,1,.05.06l0,.36s0,.06,0,.05a4.17,4.17,0,0,0-1.08-.06.14.14,0,0,0,0,.24c.53.28,1.45.49,1.18,1.3s-1.31.58-1.86.41a.07.07,0,0,1,0-.06l.06-.37s0-.06.08-.05a3.42,3.42,0,0,0,1,.07.13.13,0,0,0,.11-.2c-.22-.41-.86-.4-1.1-.83Z" transform="translate(-0.18 -0.13)"/><path class="cls-9" d="M4.59,37l0,0H3.91s0,0,0,0l0-2.52a0,0,0,0,1,0,0H4.6a0,0,0,0,1,0,0l0,2.52Z" transform="translate(-0.18 -0.13)"/><path class="cls-8" d="M57.09,39.5c0,.51,2,1.11,2.44,1.26a2.15,2.15,0,0,1,1.29,1.87c0,1.83-2.13,2.41-3.53,2-.38-.11-1.62-.76-1.52-1.28,0-.28.59-.83.88-.58.54.46,1.32,1,2.07.78.5-.15,1.09-.77.64-1.27a2,2,0,0,0-.68-.39c-1-.37-2.67-.65-2.82-2a2.14,2.14,0,0,1,.69-1.94,2.92,2.92,0,0,1,3.79.14c.34.28,0,.81-.25,1l-.07,0a.81.81,0,0,1-.47-.07c-.62-.38-1.22-.77-1.88-.46a.94.94,0,0,0-.58.93Z" transform="translate(-0.18 -0.13)"/><path class="cls-8" d="M18.22,44.59a.11.11,0,0,1-.07-.12,3.79,3.79,0,0,1,.18-.72q1-2.73,1.91-5.48c.17-.51.38-1.07,1.07-.89a.57.57,0,0,1,.26.27c.84,1.88,1.49,3.84,2.27,5.75a4.18,4.18,0,0,1,.25.77c.1.56-.65.6-1,.36a5,5,0,0,1-.66-1.07c-.11-.16-.26-.11-.42-.12-.73,0-1.47,0-2.2,0a.06.06,0,0,0-.06,0c-.32.86-.33,1.55-1.57,1.21M20.39,42l1.49.05c.07,0,.1,0,.08-.1a7.12,7.12,0,0,0-.91-2.12,0,0,0,0,0-.07,0l-.71,2a.13.13,0,0,0,.12.18Z" transform="translate(-0.18 -0.13)"/><path class="cls-8" d="M1.47,44.36c0,.49-1.24.41-1.24-.45s0-2,0-3c0-.42,0-.85,0-1.25s0-1.07,0-1.73a2.46,2.46,0,0,1,.06-.45.12.12,0,0,1,.06-.06.79.79,0,0,1,.37-.07,13.08,13.08,0,0,1,3.15.17c1.84.46,1.74,3.38,0,3.94a9.73,9.73,0,0,1-2.29.22.09.09,0,0,0-.09.09c0,.85,0,1.71,0,2.57m-.06-5.59,0,1.51a.2.2,0,0,0,.2.19l1,0C3.36,40.41,4,40,4,39.57v-.25c0-.45-.65-.8-1.4-.78l-1,0a.18.18,0,0,0-.18.2Z" transform="translate(-0.18 -0.13)"/><path class="cls-8" d="M28.32,38.66c-.78,0-.66-1.29-.09-1.29l3.54,0a1,1,0,0,1,.53.1.68.68,0,0,1-.25,1.17,5.16,5.16,0,0,1-1.18,0,.12.12,0,0,0-.14.13q.09,2.37.06,4.74c0,.27,0,.51,0,.72-.05.5-.79.45-1.05.33s-.19-.31-.2-.56c0-1.76,0-3.51,0-5.26a.07.07,0,0,0-.07-.07c-.36,0-.73,0-1.11,0Z" transform="translate(-0.18 -0.13)"/><path class="cls-8" d="M37,44.38a.21.21,0,0,1-.11-.16c0-2.25,0-4.49.07-6.74a.12.12,0,0,1,.11-.12c.29,0,.58,0,.87,0,1.1.1,2.14-.06,3.17,0,.6,0,.41,1.33-.08,1.32-.93,0-1.85,0-2.76,0a.11.11,0,0,0-.11.11l-.07,1.57s0,0,0,0l2.41.1a.08.08,0,0,1,.08.07c.09.31.2,1-.29,1a14.69,14.69,0,0,1-2.2,0s-.06,0-.06.05l0,1.61a0,0,0,0,0,0,0c1,0,1.91,0,2.76,0a.62.62,0,0,1,.19.06l.06,0a1.25,1.25,0,0,1,.17.94.16.16,0,0,1-.16.15,16.76,16.76,0,0,1-2.92,0,3.48,3.48,0,0,1-1.2-.21Z" transform="translate(-0.18 -0.13)"/><path class="cls-8" d="M47.32,40.48a1.48,1.48,0,0,0,0,.42c0,1,0,1.94,0,2.91,0,.53,0,.88-.66.86a.55.55,0,0,1-.58-.56,10.11,10.11,0,0,1,0-1.23c0-1.8,0-3.6,0-5.4a.1.1,0,0,1,.11-.11c.4,0,.88-.09,1.14.3.84,1.31,1.64,2.65,2.53,4,.06.1.11.09.13,0a1.25,1.25,0,0,0,0-.24c0-.85,0-2.07,0-3.68,0-.37.74-.31,1-.28a.18.18,0,0,1,.15.13,1.65,1.65,0,0,1,.06.46c0,1.89,0,3.78-.11,5.66a3.52,3.52,0,0,1-.12.91.07.07,0,0,1-.06,0,1.26,1.26,0,0,1-1.33-.72c-.74-1.12-1.45-2.26-2.12-3.43-.05-.09-.09-.09-.13,0Z" transform="translate(-0.18 -0.13)"/><path class="cls-8" d="M67.09,44.61c-.53,0-1.4,0-1.39-.75q0-3.21,0-6.42s0-.07.08-.08l.49,0a17.66,17.66,0,0,0,2.52,0,5.23,5.23,0,0,1,1.26.06.21.21,0,0,1,.18.17,2.74,2.74,0,0,1,0,.75c-.08.37-.68.32-1,.32-.71,0-1.43,0-2.14,0a.18.18,0,0,0-.16.15,9.4,9.4,0,0,0,0,1.5s0,0,.06.06l2.35.11c.08,0,.12,0,.12.11.08.74,0,1.05-.84,1.05l-1.65,0a.09.09,0,0,0-.09.09l0,1.51c0,.08,0,.11.11.11l1.91,0c.28,0,.8,0,1,.2a1.08,1.08,0,0,1,.23.85.2.2,0,0,1-.17.18,16.18,16.18,0,0,1-2.87,0Z" transform="translate(-0.18 -0.13)"/><path class="cls-8" d="M11,43.37c1,0,2,0,3,0a.05.05,0,0,1,.05,0c.13.6.24,1.18-.61,1.2-1.25,0-2.51,0-3.77,0a.06.06,0,0,1-.06-.05q0-3.27,0-6.55a3.75,3.75,0,0,1,0-.45.16.16,0,0,1,.1-.11c.26-.08,1.14-.19,1.14.29,0,1.84,0,3.66-.11,5.46a.15.15,0,0,0,.15.15Z" transform="translate(-0.18 -0.13)"/><path class="cls-12" d="M12,49.05a.48.48,0,0,1-.51.56.85.85,0,0,1-.83-.43.07.07,0,0,0-.08,0c-.2.09-.35.28-.51.36a2,2,0,0,1-2-.19s0,0-.07,0c-.22.43-.95.25-1.3.12a.09.09,0,0,0-.07,0A.92.92,0,0,1,5.4,49.2s0,0,0,0a1.51,1.51,0,0,1-1.76.34c-.18-.06-.22-.28-.42-.28s-.3.17-.42.24a2.28,2.28,0,0,1-1.36.09,1.14,1.14,0,0,1-.79-.75s0,0-.06,0-.52-.1-.34-.36a.91.91,0,0,0,.23-.52,2.5,2.5,0,0,1,.19-1.1,2.63,2.63,0,0,1,1.11-.91c.37-.2,1,.51,1.5.51l.07,0a1.61,1.61,0,0,1,2,.05s0,0,.07,0c.19-.12.49-.39.71-.38s.32.17.51.23l.21,0h.07c.34-.17.75-.41,1,0a.1.1,0,0,0,.06.05.41.41,0,0,0,.37,0,2,2,0,0,1,1.33-.22c.12,0,.25,0,.31.13a.17.17,0,0,0,.19.08,4,4,0,0,1,1.68-.21,2.29,2.29,0,0,0,.95,0,6.76,6.76,0,0,1,1.35-.08.08.08,0,0,1,.07,0c.21.22.23.38.59.35l.06,0a.64.64,0,0,1,.73-.32c.16,0,.24.15.38.24a.08.08,0,0,0,.08,0,.93.93,0,0,1,1.37.26s0,0,0,0c.19-.23.79-.9,1.12-.71a5.32,5.32,0,0,1,1.14.77.06.06,0,0,0,.07,0c.23-.25.7-.79,1-.84a.08.08,0,0,1,.08,0,1.13,1.13,0,0,0,.62.32.07.07,0,0,1,.06,0l.13.18a.17.17,0,0,0,.19,0,2.33,2.33,0,0,1,.75-.32c.24,0,.44.28.58.42s.05,0,.07,0A2,2,0,0,1,25,46.11c.18,0,.23.12.34.26a.09.09,0,0,0,.06,0c.53.1.55-.5,1.15-.29.12,0,.21.17.38.2a.11.11,0,0,0,.08,0c.52-.38.87,0,1.45-.14a4.26,4.26,0,0,1,1-.06s0,0,.05,0l.09-.24a.15.15,0,0,1,.25,0,2.84,2.84,0,0,0,.39.38c.46.38.66,0,1.1-.1s1.28,0,1.5.56a1.64,1.64,0,0,1-.11,1,.1.1,0,0,0,0,.07,1,1,0,0,1,.3.91,1.34,1.34,0,0,1-1.69,1.07c-.32-.07-.64-.06-.83-.37,0,0,0,0-.06,0a.56.56,0,0,1-.22.28l-.09,0h-1.6a.09.09,0,0,1-.07,0l-.17-.3s0,0-.06,0-.23.2-.37.26a.86.86,0,0,1-.86-.08l0-.06a.05.05,0,0,0-.07,0l-.06,0a.73.73,0,0,1-1,.09s0,0-.06-.06l-.15-.26s0,0-.06,0a1.32,1.32,0,0,1-1.56.45,2.44,2.44,0,0,1-.71-.45.08.08,0,0,0-.12,0c-.08.71-.93.27-1.32.31a3,3,0,0,1-1.68,0,3.26,3.26,0,0,1-.36-.29.14.14,0,0,0-.2,0,.82.82,0,0,1-.55.33c-.61.09-1.37.15-1.68-.45a0,0,0,0,0-.07,0,1.92,1.92,0,0,1-.76.49,1.39,1.39,0,0,1-.78.09,2.32,2.32,0,0,1-.8-.36s-.05,0-.07,0c-.38.3-1.07.44-1.37-.06a0,0,0,0,0-.05,0l-.11.2a.06.06,0,0,1-.06.05A1,1,0,0,1,12.06,49a0,0,0,0,0-.07,0m6.59-2.18c-1.39,0-1.47,2.85.27,2.45.21,0,.72-.44.34-.62a.06.06,0,0,0-.06,0c-1,.57-1.3-.25-1.09-1,.11-.41.36-.39.66-.21.13.07.56.17.58-.09s-.48-.49-.7-.5M1.87,49.35c.27,0,.88-.13.94-.48a.15.15,0,0,0-.2-.17c-.31.1-.53.34-.86.08a1,1,0,0,1-.15-1.27c.24-.46.72.1,1,0a.18.18,0,0,0,.12-.23A.53.53,0,0,0,2.47,47c-1.78-.78-1.89,2.11-.6,2.33m2.28,0a.94.94,0,0,0,.9-.58,1.91,1.91,0,0,0,.08-1.13c-.11-.47-.23-.77-.79-.79A.9.9,0,0,0,3.39,48v.2c0,.44.22,1.21.76,1.23m5,0c.24,0,.38,0,.43-.1a.65.65,0,0,0,.25-1A2,2,0,0,0,9,47.85c-.37-.11-.24-.56.1-.57a.93.93,0,0,1,.63.2s0,0,.05,0a.27.27,0,0,0-.08-.41.89.89,0,0,0-1-.06.73.73,0,0,0-.21,1c.23.3.85.21,1,.55.07.15.06.27,0,.34s-.72,0-.91-.16a.15.15,0,0,0-.22.09c-.08.32.6.52.81.55m3.63-.05h.27a.06.06,0,0,0,.07-.07v-.76a.07.07,0,0,1,0-.07.43.43,0,0,1,.41,0,.08.08,0,0,1,.05.05l.32.76a.05.05,0,0,0,0,0,.41.41,0,0,0,.4,0,.17.17,0,0,0,0-.25c-.13-.12-.41-.55-.3-.75.66-1.17-.11-1.51-1.14-1.33a.58.58,0,0,0-.2.11.09.09,0,0,0,0,.07l0,2.11a.11.11,0,0,0,.1.11m7.76,0c.07.07.17.08.32,0s1-.26.68-.59a.09.09,0,0,0-.07,0l-.35.13H20.7c-.51-.35-.38-.78-.26-1.29a.27.27,0,0,1,.33-.19,1.48,1.48,0,0,0,.83.12.1.1,0,0,0,0-.06.28.28,0,0,0-.13-.32c-1.43-1-2.25,1.32-1.1,2.14l.16,0m3-.81a.86.86,0,0,0,1.7.18c.11-.47.15-1.68-.56-1.77-1.1-.13-1.25.75-1.14,1.59m8.05.89c.16,0,.46.06.51-.15a.5.5,0,0,0,.24-.34c.31-1.15-1.37-.82-1.15-1.38.15-.38.65-.16.92-.06a0,0,0,0,0,.06,0,.37.37,0,0,0,0-.34.08.08,0,0,0,0,0c-.48-.23-1.28-.26-1.34.47s.72.73,1.16,1a0,0,0,0,1,0,.06l0,.3a.05.05,0,0,1,0,.06c-.39.21-.55-.12-.89-.19-.12,0-.19,0-.19.13,0,.37.5.53.79.52m-20-.09a1.2,1.2,0,0,0-.05-.8L11.5,47.4s0,0,0,0l.5-.06s.05,0,.06,0l0-.08a.18.18,0,0,0-.17-.24H10.74a.17.17,0,0,0-.17.2l0,.16s0,0,0,0a.67.67,0,0,1,.42,0s0,0,0,.06a4.15,4.15,0,0,1,0,1.61.1.1,0,0,0,0,.07.16.16,0,0,1,0,.15s0,0,0,0a.73.73,0,0,0,.48,0m4.61.07c.23,0,.54-.24.55-.5,0-.51.05-1,.05-1.52,0-.29-.06-.47-.4-.38,0,0,0,0-.05,0-.15.38.31,1.84-.31,1.91s-.43-.6-.43-.93a3.85,3.85,0,0,0-.08-1,.05.05,0,0,0-.06,0l-.26,0a0,0,0,0,0-.05.05,14.58,14.58,0,0,0,0,1.58c.06.64.42.9,1.06.79M29,48.89c-.22-.82.35-.47.77-.63a.07.07,0,0,0,0-.06l0-.18a.08.08,0,0,0-.08-.07l-.59,0a.12.12,0,0,1-.12-.11v-.45a.05.05,0,0,1,.06-.06c.2,0,1.23.09,1.05-.34a.07.07,0,0,0-.05,0,5.63,5.63,0,0,0-1.36,0,.07.07,0,0,0-.07.06,6.31,6.31,0,0,0,0,.88c0,.45,0,.84,0,1.3a.22.22,0,0,0,.24.19,7,7,0,0,1,.93,0c.41,0,.38-.43,0-.41l-.75,0a.06.06,0,0,1-.06,0M6.33,48.24c0-.2,0-.22.15-.05l.66,1c.09.15.42.26.43,0s0-.48,0-.71a13.84,13.84,0,0,0,0-1.44s0-.05-.06-.05l-.24,0a.12.12,0,0,0-.11.15,2.52,2.52,0,0,1,0,1.06s0,0-.07,0c-.22-.33-.43-.69-.63-1A.35.35,0,0,0,6,47a0,0,0,0,0,0,0c-.09.73,0,1.21-.06,2,0,.39.56.46.5,0q0-.45-.06-.72M26.55,48c.14.23.38.62.69,1.17.1.18.26.22.48.13a.08.08,0,0,0,.05-.05,1.19,1.19,0,0,0,0-.28,12.68,12.68,0,0,1,0-1.9.05.05,0,0,0-.06-.06l-.33,0a.05.05,0,0,0-.06.06v1.19s0,.07-.07,0-.16-.25-.23-.34a6.12,6.12,0,0,1-.43-.69.63.63,0,0,0-.49-.33.05.05,0,0,0-.06,0,.86.86,0,0,0,0,.28c0,.6,0,1.2,0,1.8,0,.39.41.45.43.11s0-.79,0-1.18c0-.06,0-.06.05,0m-3.84-1h-.29a.08.08,0,0,0-.08.08l0,2c0,.14.07.25.16.25h.12c.09,0,.16-.12.16-.25l0-2a.08.08,0,0,0-.07-.08M2.14,47.9a.06.06,0,0,0-.06,0s0,0-.05.06v.27a.06.06,0,0,0,.11.05A.74.74,0,0,1,3,48.13s.08,0,.09,0,0,0,0,0a3.1,3.1,0,0,0-.85-.15.06.06,0,0,1,0,0M21.31,48a.13.13,0,0,0-.23,0s.05.08.11.09a.1.1,0,0,0,.12-.06m-2.25,0S19,48,18.93,48s-.13,0-.13.09.07.08.14.07.12,0,.12-.09Z" transform="translate(-0.18 -0.13)"/><path class="cls-12" d="M36.61,49.33a.15.15,0,0,0,0-.07s0,0-.06,0a.12.12,0,0,0,0,.13c-.23.3-1,.33-1.15-.09t0,0a.77.77,0,0,1-.65.32c-.73,0-.78-.67-.75-1.23s.05-1.25,0-1.87a.13.13,0,0,1,.06-.11,1.91,1.91,0,0,1,.79-.3.07.07,0,0,1,.08,0,.44.44,0,0,0,.42.21.13.13,0,0,0,.09,0c.46-.43.73,0,1.19,0a.06.06,0,0,0,.07,0c.41-.41.73-.09,1.16,0h.07a2.31,2.31,0,0,1,1.63-.2c.25.06.47.25.76.34a.11.11,0,0,0,.14-.06l.12-.21a.12.12,0,0,1,.06-.06.66.66,0,0,1,.84.19s0,0,.06,0a.86.86,0,0,1,.82-.25c.18,0,.16.16.29.23.37.18.59-.18.86-.22a2.09,2.09,0,0,1,1.31.19.23.23,0,0,0,.2,0,2.83,2.83,0,0,1,2.08-.06.06.06,0,0,0,.07,0,3.64,3.64,0,0,1,1.75-.15.06.06,0,0,1,.06,0,.88.88,0,0,0,.49.31h0a.75.75,0,0,0,.25-.22.08.08,0,0,1,0,0,.65.65,0,0,1,1,.33c.23.42.56-.19.77-.28a1.4,1.4,0,0,1,.73-.1.05.05,0,0,1,0,0l.28.37a.05.05,0,0,0,.09,0,.56.56,0,0,1,.56-.07.05.05,0,0,0,.07,0c.19-.41.65-.39,1-.23a.12.12,0,0,1,.05,0,2.44,2.44,0,0,1,.2,1.21.74.74,0,0,0,.55.71s0,0,0,0a4.63,4.63,0,0,1,.1-1.59c.2-.37.86-.69,1.17-.23a.12.12,0,0,0,.2,0l.38-.49a.1.1,0,0,1,.07,0,.37.37,0,0,1,.49.26.08.08,0,0,0,.15,0l.11-.22s0,0,.06,0a.45.45,0,0,1,.58.31.1.1,0,0,0,0,.05,2.61,2.61,0,0,1,.53.52s0,0,.06,0a1.28,1.28,0,0,1,.9-.61h.07c.52.25.59.57.78,1.08,0,0,0,0,0,0,.13-.31.23-.54.31-.69.2-.41,1-.44,1.46-.39a1.32,1.32,0,0,1,.83.56c.34.39.88-.91,1.67-.39a2,2,0,0,1,.71.85s0,0,0,0a1.42,1.42,0,0,1,2.54-.46.11.11,0,0,1,0,.08l-.14,1a.11.11,0,0,0,.13.12.87.87,0,0,1,.45.05.07.07,0,0,1,0,.1c-.18.4-.36.75-.53,1-.42.77-1.06.64-1.8.55a.63.63,0,0,1-.4-.17s0,0-.06,0c-.3.35-1,0-1.3-.17a.14.14,0,0,0-.22,0c-.2.33-1,.4-1.17,0a.15.15,0,0,0-.23,0c-.5.54-1.44.17-2.08.23-.32,0-.9.2-1-.24a.12.12,0,0,0-.17-.07,1.83,1.83,0,0,1-.59.3c-.23,0-.45,0-.68.06s-.41.37-.79.2c-.08,0-.16-.16-.29-.15a.11.11,0,0,0-.08,0,.48.48,0,0,1-.58.13l-.06,0c-.05-.1-.11-.15-.19-.15-1,0-2,0-3-.05a.75.75,0,0,1-.36,0h-.08a2.23,2.23,0,0,1-.93,0,.1.1,0,0,1-.05,0l-.12-.24a.06.06,0,0,0-.07,0,.74.74,0,0,0-.45.26l-.06,0a8.86,8.86,0,0,1-1.15,0c-.41,0-.78,0-1.19,0-.22,0-.9,0-1-.31,0,0,0,0,0,0l0,.14a.13.13,0,0,1-.09.11c-.6.21-.88,0-1.3-.42a0,0,0,0,0-.06,0,.7.7,0,0,1-.94.44c-.31-.08-.37-.27-.48-.54,0,0,0,0,0,0a4.68,4.68,0,0,1-.38.39c-.47.42-1.15.21-1.71.16l-.07,0-.29-.31a.08.08,0,0,0-.12,0A1.46,1.46,0,0,1,40.32,49s0,0-.06,0a2.56,2.56,0,0,1-.54.55l-.07,0c-.55.06-1.37.14-1.69-.2a.06.06,0,0,0-.07,0c-.46.23-.88.38-1.28,0m-.43-1.24c.12.24.7,1.3,1,1.22a.15.15,0,0,0,.12-.16l0-2.12s0-.05,0-.05L37,47s0,0,0,.06a2.85,2.85,0,0,1-.08,1.12c0,.07,0,.07-.09,0a7.25,7.25,0,0,1-.61-1.1.47.47,0,0,0-.28-.21.06.06,0,0,0-.06,0,.23.23,0,0,0-.14.2c0,.72,0,1.43,0,2.14a.08.08,0,0,0,0,.07.3.3,0,0,0,.28.07.13.13,0,0,0,.11-.14l-.05-1.09a.07.07,0,0,1,.13,0m30.62-.4a.31.31,0,0,1,.41-.39l.5.22s.06,0,.06,0l0-.34a.09.09,0,0,0,0-.08c-.54-.31-1.18-.32-1.38.38-.31,1,1.4.76,1.11,1.38-.16.33-.72,0-.94-.11a.12.12,0,0,0-.18.08c-.19.55,1.37.91,1.58,0,.15-.68-.65-.82-1.12-1a.1.1,0,0,1,0-.05m-28.61-.45V49a.35.35,0,0,0,.35.35h.32a1.06,1.06,0,0,0,1-1.08v-.31a1.05,1.05,0,0,0-1.06-1.06h-.31a.34.34,0,0,0-.35.36m17.86-.16a.18.18,0,0,0-.17-.17h-.07a.17.17,0,0,0-.17.17v2.05a.17.17,0,0,0,.17.17h.06a.18.18,0,0,0,.18-.17V47.08m2.86,2.2c.52.14.36-.35.61-.37a1.51,1.51,0,0,1,.76,0,.08.08,0,0,1,0,.05c.08.14.22.51.46.27a.08.08,0,0,0,0-.07c-.19-.71-.5-1.42-.75-2.12-.11-.29-.41-.2-.47,0a20.4,20.4,0,0,1-.72,2.08s0,.07,0,.08m2.57-2,0,1.6a.42.42,0,0,0,.43.41h.27a1.07,1.07,0,0,0,1-1.11V48a1.08,1.08,0,0,0-1-1.09H61.9a.42.42,0,0,0-.42.42M40.64,48.6a.78.78,0,0,0,1.18.69c.6-.25.46-.93.48-1.44,0-.19.14-1-.29-.93a.38.38,0,0,0-.22.13.06.06,0,0,0,0,.07,1.3,1.3,0,0,1,.09.4c0,.34.15,1.38-.33,1.42s-.48-.5-.46-.81a3.09,3.09,0,0,1,0-.68c.07-.28.07-.46-.23-.53,0,0-.05,0-.06,0-.25.3-.16,1.14-.14,1.66m2.84-.92a.52.52,0,0,1,.08-.35.11.11,0,0,1,.09,0,4.26,4.26,0,0,1,.69.15c.12,0,.19,0,.2-.1.07-.54-1.52-.78-1.49.33,0,.24,0,.42.28.49s1.06.22.87.63-.62.1-.87,0-.28-.06-.31.1a.08.08,0,0,0,0,.07.88.88,0,0,0,1.65-.42c0-.41-.79-.65-1.07-.7a.16.16,0,0,1-.13-.13m2.28-.27a12.37,12.37,0,0,1,0,1.61c0,.27.12.37.37.28a.12.12,0,0,0,.08-.12l-.06-1.76a.09.09,0,0,1,.08-.1l.49-.06s0,0,.05,0l0-.08a.17.17,0,0,0-.15-.2,9.62,9.62,0,0,0-1.42,0,.07.07,0,0,0-.06,0c-.11.34.32.34.51.38a0,0,0,0,1,0,0m1.79,1.91c.41.09.24-.61.25-.85,0,0,0,0,0,0h.44a.07.07,0,0,1,.06,0c.15.39.32,1,.75.82,0,0,0,0,0-.07l-.37-.75a.17.17,0,0,1,0-.18c.93-1.15-.32-1.53-1.22-1.3a.12.12,0,0,0,0,.05,6.49,6.49,0,0,0,0,2.2.13.13,0,0,0,.1.1m9.37,0a3.93,3.93,0,0,0,1.37,0,0,0,0,0,0,0-.06l0-.21a.09.09,0,0,0-.07-.06c-.26,0-.49.08-.72,0a.11.11,0,0,1-.08-.17l1-1.7a.12.12,0,0,0-.1-.18l-1.31,0a.09.09,0,0,0-.07.06l0,.26c0,.05,0,.07,0,.06a2.76,2.76,0,0,1,.86,0s0,0,0,.05c-.29.49-.59,1-.87,1.48a.9.9,0,0,0-.12.27.16.16,0,0,0,.14.2m-6.67-2.2a.16.16,0,0,0-.16-.16H50a.17.17,0,0,0-.17.16v2.07a.18.18,0,0,0,.17.17h.07a.17.17,0,0,0,.16-.17V47.1m3.82,1.83a.07.07,0,0,1-.07-.06V47a.11.11,0,0,0-.11-.11.25.25,0,0,0-.28.25c0,.7,0,1.41,0,2.12a0,0,0,0,0,0,0l1.35,0a.06.06,0,0,0,.06,0l.06-.25s0,0,0,0l-1,0M34.91,47.08A.12.12,0,0,0,34.8,47h-.17a.12.12,0,0,0-.12.12v2.11a.13.13,0,0,0,.12.12h.16a.12.12,0,0,0,.12-.12V47.08m16.16,2.25a.33.33,0,0,0,.22,0l.05-.06a.75.75,0,0,1,1-.28.06.06,0,0,1,0,0l.1.29a.06.06,0,0,0,.08,0l.25,0s0,0,0,0A3.51,3.51,0,0,0,52.44,48a5.89,5.89,0,0,1-.29-.9.07.07,0,0,0,0,0q-.37-.23-.48.12a20.29,20.29,0,0,1-.68,2,.15.15,0,0,0,.12.2m13.68-.47c.28,0,.56.28.79.44s.18.05.19-.09a.8.8,0,0,0,0-.16c-.22-.61-.44-1.2-.68-1.8-.06-.14-.15-.34-.33-.3s-.25.44-.32.61a14.62,14.62,0,0,0-.57,1.61s0,.08,0,.09a.42.42,0,0,0,.38,0,.12.12,0,0,0,0-.07l.08-.27s0,0,.06,0a.94.94,0,0,0,.29,0Z" transform="translate(-0.18 -0.13)"/><path class="cls-13" d="M18.85,49.32c-1.74.4-1.66-2.5-.27-2.45.22,0,.72.21.7.5s-.45.16-.58.09c-.3-.18-.55-.2-.66.21-.21.78.12,1.6,1.09,1a.06.06,0,0,1,.06,0c.38.18-.13.57-.34.62Z" transform="translate(-0.18 -0.13)"/><path class="cls-13" d="M36.18,48.09a.07.07,0,0,0-.13,0l.05,1.09a.13.13,0,0,1-.11.14.3.3,0,0,1-.28-.07.08.08,0,0,1,0-.07c0-.71,0-1.42,0-2.14a.23.23,0,0,1,.14-.2.06.06,0,0,1,.06,0,.47.47,0,0,1,.28.21,7.25,7.25,0,0,0,.61,1.1c0,.06.07.06.09,0A2.85,2.85,0,0,0,37,47.06S37,47,37,47l.32,0s0,0,0,.05l0,2.12a.15.15,0,0,1-.12.16c-.33.08-.91-1-1-1.22Z" transform="translate(-0.18 -0.13)"/><path class="cls-13" d="M67.21,47.3a.31.31,0,0,0-.41.39.1.1,0,0,0,0,.05c.47.19,1.27.33,1.12,1-.21,1-1.77.6-1.58,0a.12.12,0,0,1,.18-.08c.22.1.78.44.94.11.29-.62-1.42-.38-1.11-1.38.2-.7.84-.69,1.38-.38a.09.09,0,0,1,0,.08l0,.34s0,0-.06,0l-.5-.22Z" transform="translate(-0.18 -0.13)"/><path class="cls-13" d="M1.87,49.35C.58,49.13.69,46.24,2.47,47a.53.53,0,0,1,.26.29.18.18,0,0,1-.12.23c-.29.07-.77-.49-1,0a1,1,0,0,0,.15,1.27c.33.26.55,0,.86-.08a.15.15,0,0,1,.2.17c-.06.35-.67.53-.94.48Z" transform="translate(-0.18 -0.13)"/><path class="cls-13" d="M5.05,48.8a.94.94,0,0,1-.9.58c-.54,0-.8-.79-.76-1.23V48a.9.9,0,0,1,.95-1.07c.56,0,.68.32.79.79a1.91,1.91,0,0,1-.08,1.13m-.72.12c.29,0,.5-.41.47-.86s-.29-.81-.58-.8-.49.41-.47.87.29.81.58.79Z" transform="translate(-0.18 -0.13)"/><path class="cls-13" d="M9.62,49.28a1.09,1.09,0,0,1-.43.1c-.21,0-.89-.23-.81-.55a.15.15,0,0,1,.22-.09c.19.11.71.33.91.16s.1-.19,0-.34c-.18-.34-.8-.25-1-.55a.73.73,0,0,1,.21-1,.89.89,0,0,1,1,.06.27.27,0,0,1,.08.41s0,0-.05,0a.93.93,0,0,0-.63-.2c-.34,0-.47.46-.1.57a2,2,0,0,1,.85.41.65.65,0,0,1-.25,1Z" transform="translate(-0.18 -0.13)"/><path class="cls-13" d="M12.82,49.33a.11.11,0,0,1-.1-.11l0-2.11a.09.09,0,0,1,0-.07.58.58,0,0,1,.2-.11c1-.18,1.8.16,1.14,1.33-.11.2.17.63.3.75a.17.17,0,0,1,0,.25.41.41,0,0,1-.4,0,.05.05,0,0,1,0,0l-.32-.76a.08.08,0,0,0-.05-.05.43.43,0,0,0-.41,0,.07.07,0,0,0,0,.07v.76a.06.06,0,0,1-.07.07h-.27m.32-1.79.06.35a.15.15,0,0,0,.18.13l.29-.05a.38.38,0,0,0,.34-.4h0a.38.38,0,0,0-.46-.26l-.28.05a.16.16,0,0,0-.13.19Z" transform="translate(-0.18 -0.13)"/><path class="cls-13" d="M20.7,48.85a.47.47,0,0,0,.46,0l.35-.13a.09.09,0,0,1,.07,0c.36.33-.45.58-.68.59l-.32,0-.16,0c-1.15-.82-.33-3.15,1.1-2.14a.28.28,0,0,1,.13.32.1.1,0,0,1,0,.06,1.48,1.48,0,0,1-.83-.12.27.27,0,0,0-.33.19c-.12.51-.25.94.26,1.29Z" transform="translate(-0.18 -0.13)"/><path class="cls-13" d="M25.28,48.67a.86.86,0,0,1-1.7-.18c-.11-.84,0-1.72,1.14-1.59.71.09.67,1.3.56,1.77m-.81.24c.29,0,.52-.38.5-.83s-.26-.81-.54-.8-.51.38-.5.83.26.81.54.8Z" transform="translate(-0.18 -0.13)"/><path class="cls-13" d="M32.14,49.23a.84.84,0,0,1-.51.15c-.29,0-.8-.15-.79-.52,0-.11.07-.15.19-.13.34.07.5.4.89.19a.05.05,0,0,0,0-.06l0-.3a0,0,0,0,0,0-.06c-.44-.26-1.22-.25-1.16-1s.86-.7,1.34-.47a.08.08,0,0,1,0,0,.37.37,0,0,1,0,.34,0,0,0,0,1-.06,0c-.27-.1-.77-.32-.92.06-.22.56,1.46.23,1.15,1.38a.5.5,0,0,1-.24.34Z" transform="translate(-0.18 -0.13)"/><path class="cls-13" d="M38.19,47.24a.34.34,0,0,1,.35-.36h.31a1.05,1.05,0,0,1,1.06,1.06v.31a1.06,1.06,0,0,1-1,1.08h-.32A.35.35,0,0,1,38.2,49V47.24m.44.26v1.2a.2.2,0,0,0,.21.2h.08a.64.64,0,0,0,.59-.67V48a.64.64,0,0,0-.6-.67h-.08a.2.2,0,0,0-.2.2Z" transform="translate(-0.18 -0.13)"/><path class="cls-13" d="M56,49.13a.18.18,0,0,1-.18.17H55.8a.17.17,0,0,1-.17-.17V47.08a.17.17,0,0,1,.17-.17h.07a.18.18,0,0,1,.17.17v2.05Z" transform="translate(-0.18 -0.13)"/><path class="cls-13" d="M58.91,49.28s0,0,0-.08a20.4,20.4,0,0,0,.72-2.08c.06-.25.36-.34.47,0,.25.7.56,1.41.75,2.12a.08.08,0,0,1,0,.07c-.24.24-.38-.13-.46-.27a.08.08,0,0,0,0-.05,1.51,1.51,0,0,0-.76,0c-.25,0-.09.51-.61.37m1.23-1L60.08,48a.13.13,0,0,0-.15-.11h0a.36.36,0,0,0-.34.35v0c0,.16.22.25.43.22h0a.14.14,0,0,0,.11-.16Z" transform="translate(-0.18 -0.13)"/><path class="cls-13" d="M61.48,47.3a.42.42,0,0,1,.42-.42h.27a1.08,1.08,0,0,1,1,1.09v.24a1.07,1.07,0,0,1-1,1.11h-.27a.42.42,0,0,1-.43-.41l0-1.6m.41.2v1.16a.23.23,0,0,0,.23.23h.1c.34,0,.61-.35.61-.79v0a.71.71,0,0,0-.59-.8h-.11a.23.23,0,0,0-.23.22Z" transform="translate(-0.18 -0.13)"/><path class="cls-13" d="M11.58,48.49a2.15,2.15,0,0,0,.05.8.73.73,0,0,1-.48,0s0,0,0,0a.16.16,0,0,0,0-.15.1.1,0,0,1,0-.07,4.15,4.15,0,0,0,0-1.61s0-.05,0-.06a.67.67,0,0,0-.42,0s0,0,0,0l0-.16a.17.17,0,0,1,.17-.2H12a.18.18,0,0,1,.17.24l0,.08s0,0-.06,0l-.5.06s0,0,0,0l.08,1.09Z" transform="translate(-0.18 -0.13)"/><path class="cls-13" d="M41.82,49.29a.78.78,0,0,1-1.18-.69c0-.52-.11-1.36.14-1.66,0,0,0,0,.06,0,.3.07.3.25.23.53a3.09,3.09,0,0,0,0,.68c0,.31,0,.84.46.81s.33-1.08.33-1.42a1.3,1.3,0,0,0-.09-.4.06.06,0,0,1,0-.07.38.38,0,0,1,.22-.13c.43-.11.3.74.29.93,0,.51.12,1.19-.48,1.44Z" transform="translate(-0.18 -0.13)"/><path class="cls-13" d="M43.48,47.68a.16.16,0,0,0,.13.13c.28,0,1.06.29,1.07.7a.88.88,0,0,1-1.65.42.08.08,0,0,1,0-.07c0-.16.18-.18.31-.1s.67.46.87,0-.61-.56-.87-.63-.27-.25-.28-.49c0-1.11,1.56-.87,1.49-.33,0,.11-.08.14-.2.1a4.26,4.26,0,0,0-.69-.15.11.11,0,0,0-.09,0,.52.52,0,0,0-.08.35Z" transform="translate(-0.18 -0.13)"/><path class="cls-13" d="M45.71,47.36c-.19,0-.62,0-.51-.38a.07.07,0,0,1,.06,0,9.62,9.62,0,0,1,1.42,0,.17.17,0,0,1,.15.2l0,.08s0,0-.05,0l-.49.06a.09.09,0,0,0-.08.1l.06,1.76a.12.12,0,0,1-.08.12c-.25.09-.39,0-.37-.28a12.37,12.37,0,0,0,0-1.61,0,0,0,0,0,0,0Z" transform="translate(-0.18 -0.13)"/><path class="cls-13" d="M47.55,49.32a.13.13,0,0,1-.1-.1,6.49,6.49,0,0,1,0-2.2.12.12,0,0,1,0-.05c.9-.23,2.15.15,1.22,1.3a.17.17,0,0,0,0,.18l.37.75s0,0,0,.07c-.43.18-.6-.43-.75-.82a.07.07,0,0,0-.06,0h-.44s0,0,0,0c0,.24.16.94-.25.85m.3-1.86v.36A.16.16,0,0,0,48,48h.18c.24,0,.44-.15.44-.33v0c0-.18-.2-.33-.45-.32H48a.16.16,0,0,0-.16.16Z" transform="translate(-0.18 -0.13)"/><path class="cls-13" d="M58.29,49.26a3.93,3.93,0,0,1-1.37,0,.16.16,0,0,1-.14-.2.9.9,0,0,1,.12-.27c.28-.49.58-1,.87-1.48,0,0,0-.05,0-.05a2.76,2.76,0,0,0-.86,0s-.06,0,0-.06l0-.26a.09.09,0,0,1,.07-.06l1.31,0a.12.12,0,0,1,.1.18l-1,1.7a.11.11,0,0,0,.08.17c.23,0,.46-.08.72,0a.09.09,0,0,1,.07.06l0,.21a0,0,0,0,1,0,.06Z" transform="translate(-0.18 -0.13)"/><path class="cls-13" d="M16.79,48.86c0,.26-.32.46-.55.5-.64.11-1-.15-1.06-.79a14.58,14.58,0,0,1,0-1.58,0,0,0,0,1,.05-.05l.26,0a.05.05,0,0,1,.06,0,3.85,3.85,0,0,1,.08,1c0,.33-.18,1,.43.93s.16-1.53.31-1.91c0,0,0,0,.05,0,.34-.09.4.09.4.38,0,.5,0,1-.05,1.52Z" transform="translate(-0.18 -0.13)"/><path class="cls-13" d="M29.08,48.94l.75,0c.34,0,.37.41,0,.41a7,7,0,0,0-.93,0,.22.22,0,0,1-.24-.19c-.05-.46,0-.85,0-1.3a6.31,6.31,0,0,1,0-.88.07.07,0,0,1,.07-.06,5.63,5.63,0,0,1,1.36,0,.07.07,0,0,1,.05,0c.18.43-.85.34-1.05.34a.05.05,0,0,0-.06.06v.45a.12.12,0,0,0,.12.11l.59,0a.08.08,0,0,1,.08.07l0,.18a.07.07,0,0,1,0,.06c-.42.16-1-.19-.77.63a.06.06,0,0,0,.06,0Z" transform="translate(-0.18 -0.13)"/><path class="cls-13" d="M50.25,49.17a.17.17,0,0,1-.16.17H50a.18.18,0,0,1-.17-.17V47.1a.17.17,0,0,1,.17-.16h.07a.16.16,0,0,1,.16.16v2.07Z" transform="translate(-0.18 -0.13)"/><path class="cls-13" d="M54.07,48.93l1,0s0,0,0,0l-.06.25a.06.06,0,0,1-.06,0l-1.35,0a0,0,0,0,1,0,0c0-.71,0-1.42,0-2.12a.25.25,0,0,1,.28-.25A.11.11,0,0,1,54,47v1.83a.07.07,0,0,0,.07.06Z" transform="translate(-0.18 -0.13)"/><path class="cls-13" d="M6.33,48.24q0,.27.06.72c.06.5-.51.43-.5,0,0-.78,0-1.26.06-2a0,0,0,0,1,0,0,.35.35,0,0,1,.45.21c.2.36.41.72.63,1,0,0,.07,0,.07,0a2.52,2.52,0,0,0,0-1.06A.12.12,0,0,1,7.29,47l.24,0s.06,0,.06.05a13.84,13.84,0,0,1,0,1.44c0,.23,0,.47,0,.71s-.34.16-.43,0l-.66-1c-.11-.17-.16-.15-.15.05Z" transform="translate(-0.18 -0.13)"/><path class="cls-13" d="M26.5,48c0,.39,0,.79,0,1.18s-.45.28-.43-.11c0-.6,0-1.2,0-1.8a.86.86,0,0,1,0-.28.05.05,0,0,1,.06,0,.63.63,0,0,1,.49.33,6.12,6.12,0,0,0,.43.69c.07.09.11.29.23.34s.07,0,.07,0V47.06a.05.05,0,0,1,.06-.06l.33,0a.05.05,0,0,1,.06.06,12.68,12.68,0,0,0,0,1.9,1.19,1.19,0,0,1,0,.28.08.08,0,0,1-.05.05c-.22.09-.38,0-.48-.13-.31-.55-.55-.94-.69-1.17,0,0-.05,0-.05,0Z" transform="translate(-0.18 -0.13)"/><path class="cls-13" d="M34.9,49.19a.12.12,0,0,1-.12.12h-.16a.13.13,0,0,1-.12-.12V47.08a.12.12,0,0,1,.12-.12h.17a.12.12,0,0,1,.11.12v2.11Z" transform="translate(-0.18 -0.13)"/><path class="cls-13" d="M51.07,49.33a.15.15,0,0,1-.12-.2,20.29,20.29,0,0,0,.68-2q.1-.35.48-.12a.07.07,0,0,1,0,0,5.89,5.89,0,0,0,.29.9,3.51,3.51,0,0,1,.45,1.28s0,0,0,0l-.25,0a.06.06,0,0,1-.08,0l-.1-.29a.06.06,0,0,0,0,0,.75.75,0,0,0-1,.28l-.05.06a.33.33,0,0,1-.22,0m.84-.82a.29.29,0,1,0-.24-.31.28.28,0,0,0,.24.31Z" transform="translate(-0.18 -0.13)"/><path class="cls-13" d="M64.68,48.87a.94.94,0,0,1-.29,0s-.06,0-.06,0l-.08.27a.12.12,0,0,1,0,.07.42.42,0,0,1-.38,0s0,0,0-.09a14.62,14.62,0,0,1,.57-1.61c.07-.17.1-.57.32-.61s.27.16.33.3c.24.6.46,1.19.68,1.8a.8.8,0,0,1,0,.16c0,.14-.07.17-.19.09s-.51-.43-.79-.44h-.07m.33-.49-.14-.49a.09.09,0,0,0-.12-.06h0a.33.33,0,0,0-.23.41v0a.33.33,0,0,0,.41.23h0a.09.09,0,0,0,.06-.12Z" transform="translate(-0.18 -0.13)"/><path class="cls-13" d="M22.71,47a.08.08,0,0,1,.07.08l0,2c0,.13-.07.24-.16.25h-.12c-.09,0-.16-.11-.16-.25l0-2a.08.08,0,0,1,.08-.08Z" transform="translate(-0.18 -0.13)"/><path class="cls-12" d="M4.33,48.92c-.29,0-.55-.34-.58-.79s.18-.85.47-.87.55.34.58.8-.18.84-.47.86Z" transform="translate(-0.18 -0.13)"/><path class="cls-12" d="M61.89,47.5a.23.23,0,0,1,.23-.22h.11a.71.71,0,0,1,.59.8v0c0,.44-.27.8-.61.79h-.1a.23.23,0,0,1-.23-.23V47.5Z" transform="translate(-0.18 -0.13)"/><path class="cls-12" d="M13.14,47.54a.16.16,0,0,1,.13-.19l.28-.05a.38.38,0,0,1,.46.26h0a.38.38,0,0,1-.34.4l-.29.05a.15.15,0,0,1-.18-.13l-.06-.35Z" transform="translate(-0.18 -0.13)"/><path class="cls-12" d="M24.47,48.91c-.28,0-.53-.35-.54-.8s.21-.83.5-.83.53.35.54.8-.21.83-.5.83Z" transform="translate(-0.18 -0.13)"/><path class="cls-12" d="M38.63,47.5a.2.2,0,0,1,.2-.2h.08a.64.64,0,0,1,.6.67v.26a.64.64,0,0,1-.59.67h-.08a.2.2,0,0,1-.21-.2V47.5Z" transform="translate(-0.18 -0.13)"/><path class="cls-12" d="M47.85,47.46A.16.16,0,0,1,48,47.3h.18c.25,0,.45.14.45.32v0c0,.18-.2.33-.44.33H48a.16.16,0,0,1-.16-.16v-.36Z" transform="translate(-0.18 -0.13)"/><path class="cls-12" d="M65,48.38a.09.09,0,0,1-.06.12h0a.33.33,0,0,1-.41-.23v0a.33.33,0,0,1,.23-.41h0a.09.09,0,0,1,.12.06l.14.49Z" transform="translate(-0.18 -0.13)"/><path class="cls-12" d="M60.14,48.32a.14.14,0,0,1-.11.16h0c-.21,0-.4-.06-.43-.22v0a.36.36,0,0,1,.34-.35h0a.13.13,0,0,1,.15.11l.06.32Z" transform="translate(-0.18 -0.13)"/><path class="cls-11" d="M21.31,48a.1.1,0,0,1-.12.06c-.06,0-.11-.05-.11-.09a.13.13,0,0,1,.23,0Z" transform="translate(-0.18 -0.13)"/><path class="cls-11" d="M51.91,48.51a.29.29,0,1,1,.28-.26.28.28,0,0,1-.28.26Z" transform="translate(-0.18 -0.13)"/><path class="cls-11" d="M11.58,48.49a1.2,1.2,0,0,1,.05.8,2.15,2.15,0,0,1-.05-.8Z" transform="translate(-0.18 -0.13)"/><path class="cls-11" d="M20.7,48.85h.46a.47.47,0,0,1-.46,0Z" transform="translate(-0.18 -0.13)"/><path class="cls-11" d="M32.14,49.23c0,.21-.35.2-.51.15a.84.84,0,0,0,.51-.15Z" transform="translate(-0.18 -0.13)"/><path class="cls-11" d="M36.61,49.33a.09.09,0,0,0-.09.06.12.12,0,0,1,0-.13s0,0,.06,0a.15.15,0,0,1,0,.07Z" transform="translate(-0.18 -0.13)"/><path class="cls-11" d="M9.62,49.28c0,.11-.19.15-.43.1a1.09,1.09,0,0,0,.43-.1Z" transform="translate(-0.18 -0.13)"/><path class="cls-11" d="M20.58,49.3l.32,0c-.15.06-.25,0-.32,0Z" transform="translate(-0.18 -0.13)"/></svg>