<?xml version="1.0" encoding="utf-8"?>
<!-- Generator: Adobe Illustrator 25.0.1, SVG Export Plug-In . SVG Version: 6.00 Build 0)  -->
<svg version="1.1" id="Capa_1" xmlns="http://www.w3.org/2000/svg" xmlns:xlink="http://www.w3.org/1999/xlink" x="0px" y="0px"
	 viewBox="0 0 22 28.18" style="enable-background:new 0 0 22 28.18;" xml:space="preserve">
<style type="text/css">
	.st0{fill:#0A499A;}
</style>
<path class="st0" d="M18.66,5.63H3.34c-1.71,0-3.11,1.39-3.11,3.11v10.7c0,1.71,1.39,3.11,3.11,3.11h15.32
	c1.71,0,3.11-1.39,3.11-3.11V8.74C21.77,7.03,20.37,5.63,18.66,5.63z M18.66,7.12c0.13,0,0.25,0.02,0.37,0.04l-6.46,7.33
	c-0.4,0.45-0.97,0.71-1.57,0.71c-0.6,0-1.17-0.26-1.57-0.71L2.97,7.16c0.12-0.03,0.24-0.04,0.37-0.04H18.66z M20.28,19.44
	c0,0.89-0.73,1.62-1.62,1.62H3.34c-0.89,0-1.62-0.73-1.62-1.62V8.74c0-0.22,0.04-0.43,0.12-0.62l6.48,7.35
	C9,16.25,9.97,16.69,11,16.69c1.03,0,2-0.44,2.68-1.21l6.48-7.35c0.08,0.19,0.12,0.4,0.12,0.61V19.44z"/>
</svg>
